<svg width="48" height="48" viewBox="0 0 48 48" fill="none" xmlns="http://www.w3.org/2000/svg">
<g clip-path="url(#clip0_8_97)">
<path d="M46.967 25.747C50.602 12.625 44.314 0 33.295 0C27.198 0 24.595 3.504 17.898 11.663C11.2 19.822 1.65 8.478 0 25.747C1.386 41.66 18.652 56.064 26.668 42.774C33.966 30.674 43.333 38.868 46.968 25.747H46.967Z" fill="#FFDD76"/>
<path d="M28.9753 16.4975V15.7937H26.521V15.6974C26.521 14.8424 25.8352 14.1944 25 14.1944C24.1648 14.1944 23.479 14.8424 23.479 15.6974V15.7937H21.0238V18.8006H28.9762V18.0968L28.9753 16.4975ZM23.6905 28.6682L24.1819 29.1488L24.6733 28.6682L29.3308 24.1142L29.482 24.2627L24.181 29.4449L21.337 26.663L21.4873 26.5145L23.6905 28.6682Z" fill="#63522B"/>
<path d="M34 15.6002H26.6425L26.4634 15.1637C26.1664 14.4383 25.6444 14 25 14C24.3556 14 23.8336 14.4383 23.5366 15.1637L23.3575 15.6002H22.885H20.9095L16.9 15.5473M29.2066 15.7937V18.9941H20.7943V15.7937M33.0667 15.8975V33.2969M33.2971 15.0973V33.2969M34 34.0007H16M34 34.1942H16M16.9333 33.2969V15.7937M16.702 33.2969V14.8451M28.9753 16.4975V15.7937H26.521V15.6974C26.521 14.8424 25.8352 14.1944 25 14.1944C24.1648 14.1944 23.479 14.8424 23.479 15.6974V15.7937H21.0238V18.8006H28.9762V18.0968L28.9753 16.4975ZM23.6905 28.6682L24.1819 29.1488L24.6733 28.6682L29.3308 24.1142L29.482 24.2627L24.181 29.4449L21.337 26.663L21.4873 26.5145L23.6905 28.6682Z" stroke="#63522B" stroke-width="1.563"/>
</g>
<defs>
<clipPath id="clip0_8_97">
<rect width="48" height="48" fill="white"/>
</clipPath>
</defs>
</svg>
