<svg width="100" height="38" viewBox="0 0 100 38" fill="none" xmlns="http://www.w3.org/2000/svg">
<path d="M0.788574 23.1079V1.40507H8.14548V23.1079H0.788574Z" fill="#00FEFF"/>
<path d="M23.0147 7.56648V23.1079H15.7191V7.56648H10.3854V1.40507H28.3485V7.56648H23.0147Z" fill="#00FEFF"/>
<path d="M26.7166 17.0078V11.7354H35.1771V17.0078H26.7166Z" fill="#00FEFF"/>
<path d="M44.8704 23.721C43.1538 23.721 41.478 23.4247 39.8432 22.8321C38.2287 22.2394 36.8595 21.4424 35.7356 20.4411L40.1804 15.5978C40.7117 16.1904 41.4065 16.6911 42.2648 17.0998C43.1231 17.5085 43.9814 17.7129 44.8397 17.7129C45.9228 17.7129 46.4644 17.3757 46.4644 16.7013C46.4644 16.313 46.2294 15.9963 45.7594 15.751C45.2893 15.5058 44.2471 15.1175 42.6327 14.5862C40.8956 14.014 39.5264 13.2476 38.5251 12.2872C37.5237 11.3267 37.023 9.97791 37.023 8.24086C37.023 6.9534 37.2887 5.81921 37.82 4.83829C38.3718 3.83693 39.0973 3.05015 39.9964 2.47795C40.8956 1.90575 41.8561 1.48681 42.8779 1.22115C43.9201 0.935043 45.0032 0.791992 46.1272 0.791992C47.5781 0.791992 49.0393 1.07809 50.5107 1.6503C52.0025 2.2225 53.3002 3.00928 54.4037 4.01064L49.867 8.63936C49.3969 8.06716 48.8043 7.61757 48.089 7.29059C47.3942 6.94318 46.7403 6.76948 46.1272 6.76948C44.9419 6.76948 44.3493 7.09645 44.3493 7.7504C44.3493 8.05694 44.4923 8.29195 44.7784 8.45544C45.0645 8.59849 45.6367 8.81307 46.495 9.09917C47.0877 9.30352 47.5577 9.46701 47.9051 9.58963C48.2525 9.69181 48.7123 9.86551 49.2845 10.1107C49.8772 10.356 50.3472 10.591 50.6946 10.8158C51.0625 11.0406 51.461 11.3369 51.8901 11.7047C52.3397 12.0726 52.6871 12.4506 52.9323 12.8389C53.1776 13.2272 53.3819 13.6972 53.5454 14.249C53.7293 14.7803 53.8213 15.3525 53.8213 15.9656C53.8213 18.4179 52.9323 20.3287 51.1544 21.6979C49.3765 23.0466 47.2818 23.721 44.8704 23.721Z" fill="#00FEFF"/>
<path d="M65.9966 16.1189H63.9428V23.1079H56.6779V1.40507H65.9966C67.1819 1.40507 68.2752 1.52768 69.2766 1.77291C70.2779 2.01814 71.2077 2.40643 72.066 2.93776C72.9448 3.46909 73.6294 4.22522 74.1199 5.20614C74.6308 6.18706 74.8862 7.3519 74.8862 8.70067C74.8862 9.98813 74.6308 11.1223 74.1199 12.1032C73.6294 13.0842 72.955 13.8607 72.0967 14.4329C71.2588 15.0051 70.3188 15.4343 69.2766 15.7204C68.2548 15.9861 67.1614 16.1189 65.9966 16.1189ZM65.4755 7.07602H63.9428V10.5705H65.4755C66.0886 10.5705 66.6097 10.4173 67.0388 10.1107C67.468 9.8042 67.6826 9.35462 67.6826 8.76198C67.6826 7.638 66.9469 7.07602 65.4755 7.07602Z" fill="#00FEFF"/>
<path d="M90.5991 23.1079L84.8056 14.4636H84.7443V23.1079H77.6326V1.40507H84.7136V9.40571H84.7749L90.5685 1.40507H99.1516L90.9976 11.3369L99.55 23.1079H90.5991Z" fill="#00FEFF"/>
<path d="M3.40257 30.9758L2.96575 31.3283C2.71031 30.9655 2.33735 30.7842 1.84689 30.7842C1.54546 30.7842 1.27724 30.8736 1.04223 31.0524C0.807216 31.2312 0.68971 31.4816 0.68971 31.8034C0.68971 31.9363 0.7127 32.0563 0.758681 32.1636C0.809771 32.2709 0.863415 32.3552 0.919614 32.4165C0.975812 32.4778 1.06777 32.5417 1.1955 32.6081C1.32833 32.6745 1.43051 32.7205 1.50204 32.746C1.57867 32.7716 1.70129 32.8124 1.86988 32.8686C2.04359 32.9248 2.15598 32.9632 2.20707 32.9836C2.26327 32.9989 2.36545 33.0372 2.51361 33.0985C2.66688 33.1598 2.77161 33.2135 2.82781 33.2595C2.88912 33.3003 2.97086 33.3642 3.07304 33.4511C3.18033 33.5379 3.25441 33.6248 3.29528 33.7116C3.34126 33.7985 3.38213 33.9058 3.4179 34.0335C3.45877 34.1612 3.4792 34.3017 3.4792 34.455C3.4792 34.9608 3.30295 35.349 2.95043 35.6198C2.59791 35.8855 2.18408 36.0183 1.70895 36.0183C1.36665 36.0183 1.04223 35.9493 0.735691 35.8114C0.434262 35.6735 0.189032 35.4742 0 35.2137L0.475134 34.8611C0.602858 35.0655 0.774008 35.2315 0.988585 35.3593C1.20316 35.4819 1.44584 35.5432 1.71661 35.5432C2.02826 35.5432 2.3067 35.4512 2.55193 35.2673C2.79716 35.0783 2.91977 34.8203 2.91977 34.4933C2.91977 34.3451 2.89167 34.2149 2.83548 34.1025C2.78439 33.9849 2.72563 33.8904 2.65922 33.8189C2.5928 33.7474 2.48807 33.6784 2.34501 33.612C2.20707 33.5405 2.09212 33.4894 2.00016 33.4587C1.91331 33.4281 1.77792 33.3846 1.594 33.3284C1.37942 33.262 1.19805 33.1956 1.04989 33.1292C0.906841 33.0628 0.758681 32.9734 0.605412 32.861C0.452143 32.7486 0.334637 32.6055 0.252894 32.4318C0.176259 32.253 0.137942 32.0461 0.137942 31.8111C0.137942 31.479 0.227349 31.198 0.406163 30.9681C0.590085 30.7331 0.807216 30.5671 1.05756 30.47C1.313 30.3678 1.58378 30.3167 1.86988 30.3167C2.21218 30.3167 2.51872 30.3806 2.78949 30.5083C3.06027 30.6309 3.26463 30.7867 3.40257 30.9758Z" fill="#00FEFF"/>
<path d="M5.16097 32.2939V35.8804H4.63986V32.2939H5.16097ZM5.15331 30.6539C5.22994 30.7254 5.26826 30.8123 5.26826 30.9145C5.26826 31.0166 5.22994 31.1035 5.15331 31.175C5.08178 31.2465 4.99749 31.2823 4.90041 31.2823C4.80334 31.2823 4.71649 31.2465 4.63986 31.175C4.56833 31.1035 4.53257 31.0166 4.53257 30.9145C4.53257 30.8123 4.56833 30.7254 4.63986 30.6539C4.71649 30.5824 4.80334 30.5466 4.90041 30.5466C4.99749 30.5466 5.08178 30.5824 5.15331 30.6539Z" fill="#00FEFF"/>
<path d="M7.06151 32.907C7.1688 32.6975 7.32717 32.5289 7.53664 32.4012C7.75122 32.2683 7.98623 32.2019 8.24168 32.2019C8.78323 32.2019 9.15107 32.4548 9.34521 32.9606C9.59555 32.4548 10.0145 32.2019 10.602 32.2019C11.0465 32.2019 11.3837 32.3348 11.6136 32.6004C11.8486 32.8661 11.9661 33.2263 11.9661 33.681V35.8804H11.445V33.8955C11.445 33.0577 11.1359 32.6387 10.5177 32.6387C10.1703 32.6387 9.91231 32.769 9.74371 33.0296C9.58023 33.285 9.49848 33.5992 9.49848 33.9722V35.8804H8.97737V33.7883C8.97737 33.4102 8.91351 33.1241 8.78578 32.9299C8.66317 32.7358 8.43837 32.6387 8.1114 32.6387C7.83551 32.6387 7.59284 32.7614 7.38337 33.0066C7.1739 33.2467 7.06917 33.5916 7.06917 34.0411V35.8804H6.54806V33.0832C6.54806 32.7767 6.53784 32.5136 6.5174 32.2939H7.01553C7.03596 32.5493 7.04618 32.7537 7.04618 32.907H7.06151Z" fill="#00FEFF"/>
<path d="M13.8346 35.275V37.7196H13.3134V32.2939H13.8346V32.9146H13.8575C14.0006 32.6898 14.1947 32.5161 14.44 32.3935C14.6852 32.2658 14.9406 32.2019 15.2063 32.2019C15.7581 32.2019 16.2051 32.3833 16.5474 32.746C16.8897 33.1037 17.0609 33.5507 17.0609 34.0871C17.0609 34.6236 16.8897 35.0732 16.5474 35.4359C16.2051 35.7935 15.7581 35.9723 15.2063 35.9723C14.9458 35.9723 14.6929 35.911 14.4476 35.7884C14.2024 35.6658 14.0057 35.4946 13.8575 35.275H13.8346ZM16.1413 35.1217C16.3865 34.8458 16.5091 34.501 16.5091 34.0871C16.5091 33.6733 16.3865 33.3284 16.1413 33.0526C15.9011 32.7767 15.5716 32.6387 15.1527 32.6387C14.7542 32.6387 14.4246 32.7767 14.1641 33.0526C13.9035 33.3284 13.7732 33.6733 13.7732 34.0871C13.7732 34.501 13.9035 34.8458 14.1641 35.1217C14.4246 35.3925 14.7542 35.5279 15.1527 35.5279C15.5716 35.5279 15.9011 35.3925 16.1413 35.1217Z" fill="#00FEFF"/>
<path d="M18.7144 30.0868V35.8804H18.1933V30.0868H18.7144Z" fill="#00FEFF"/>
<path d="M20.4 33.8112H22.8446C22.8293 33.4638 22.7169 33.1828 22.5074 32.9683C22.3031 32.7486 22.0195 32.6387 21.6568 32.6387C21.3196 32.6387 21.0309 32.7562 20.7908 32.9913C20.5558 33.2212 20.4255 33.4945 20.4 33.8112ZM23.3734 33.9798C23.3734 34.082 23.3708 34.1638 23.3657 34.2251H20.3923C20.4025 34.5878 20.5328 34.8969 20.7831 35.1523C21.0335 35.4027 21.34 35.5279 21.7028 35.5279C21.9531 35.5279 22.1804 35.4691 22.3848 35.3516C22.5892 35.229 22.745 35.0808 22.8523 34.9071L23.2431 35.2137C22.8446 35.7194 22.3312 35.9723 21.7028 35.9723C21.1714 35.9723 20.7295 35.7935 20.377 35.4359C20.0245 35.0783 19.8482 34.6287 19.8482 34.0871C19.8482 33.5507 20.0219 33.1037 20.3693 32.746C20.7167 32.3833 21.1459 32.2019 21.6568 32.2019C22.1983 32.2019 22.6198 32.3705 22.9212 32.7077C23.2227 33.0398 23.3734 33.4638 23.3734 33.9798Z" fill="#00FEFF"/>
<path d="M26.9313 35.275V37.7196H26.4102V32.2939H26.9313V32.9146H26.9543C27.0973 32.6898 27.2914 32.5161 27.5367 32.3935C27.7819 32.2658 28.0374 32.2019 28.303 32.2019C28.8548 32.2019 29.3018 32.3833 29.6441 32.746C29.9864 33.1037 30.1576 33.5507 30.1576 34.0871C30.1576 34.6236 29.9864 35.0732 29.6441 35.4359C29.3018 35.7935 28.8548 35.9723 28.303 35.9723C28.0425 35.9723 27.7896 35.911 27.5443 35.7884C27.2991 35.6658 27.1024 35.4946 26.9543 35.275H26.9313ZM29.238 35.1217C29.4832 34.8458 29.6058 34.501 29.6058 34.0871C29.6058 33.6733 29.4832 33.3284 29.238 33.0526C28.9978 32.7767 28.6683 32.6387 28.2494 32.6387C27.8509 32.6387 27.5214 32.7767 27.2608 33.0526C27.0002 33.3284 26.87 33.6733 26.87 34.0871C26.87 34.501 27.0002 34.8458 27.2608 35.1217C27.5214 35.3925 27.8509 35.5279 28.2494 35.5279C28.6683 35.5279 28.9978 35.3925 29.238 35.1217Z" fill="#00FEFF"/>
<path d="M34.294 32.7384C34.6568 33.096 34.8381 33.5456 34.8381 34.0871C34.8381 34.6287 34.6568 35.0783 34.294 35.4359C33.9364 35.7935 33.4792 35.9723 32.9223 35.9723C32.3705 35.9723 31.9133 35.7935 31.5505 35.4359C31.1929 35.0783 31.0141 34.6287 31.0141 34.0871C31.0141 33.5456 31.1929 33.096 31.5505 32.7384C31.9133 32.3807 32.3705 32.2019 32.9223 32.2019C33.4792 32.2019 33.9364 32.3807 34.294 32.7384ZM33.9109 35.1217C34.1612 34.8458 34.2864 34.501 34.2864 34.0871C34.2864 33.6733 34.1612 33.3284 33.9109 33.0526C33.6605 32.7767 33.331 32.6387 32.9223 32.6387C32.5187 32.6387 32.1917 32.7767 31.9414 33.0526C31.691 33.3284 31.5659 33.6733 31.5659 34.0871C31.5659 34.4958 31.691 34.8381 31.9414 35.114C32.1917 35.3899 32.5187 35.5279 32.9223 35.5279C33.331 35.5279 33.6605 35.3925 33.9109 35.1217Z" fill="#00FEFF"/>
<path d="M35.4691 32.2939H36.0285L36.8945 35.206H36.9098L37.8754 32.2939H38.3812L39.3621 35.206H39.3774L40.2357 32.2939H40.7875L39.6533 35.8804H39.0862L38.1283 32.9759H38.113L37.1703 35.8804H36.6033L35.4691 32.2939Z" fill="#00FEFF"/>
<path d="M41.9684 33.8112H44.413C44.3977 33.4638 44.2853 33.1828 44.0758 32.9683C43.8715 32.7486 43.5879 32.6387 43.2252 32.6387C42.888 32.6387 42.5993 32.7562 42.3592 32.9913C42.1242 33.2212 41.9939 33.4945 41.9684 33.8112ZM44.9418 33.9798C44.9418 34.082 44.9392 34.1638 44.9341 34.2251H41.9607C41.9709 34.5878 42.1012 34.8969 42.3516 35.1523C42.6019 35.4027 42.9084 35.5279 43.2712 35.5279C43.5215 35.5279 43.7489 35.4691 43.9532 35.3516C44.1576 35.229 44.3134 35.0808 44.4207 34.9071L44.8115 35.2137C44.413 35.7194 43.8996 35.9723 43.2712 35.9723C42.7398 35.9723 42.2979 35.7935 41.9454 35.4359C41.5929 35.0783 41.4166 34.6287 41.4166 34.0871C41.4166 33.5507 41.5903 33.1037 41.9377 32.746C42.2851 32.3833 42.7143 32.2019 43.2252 32.2019C43.7667 32.2019 44.1882 32.3705 44.4897 32.7077C44.7911 33.0398 44.9418 33.4638 44.9418 33.9798Z" fill="#00FEFF"/>
<path d="M46.0627 33.0832C46.0627 32.7767 46.0525 32.5136 46.032 32.2939H46.5302C46.5506 32.5493 46.5608 32.7537 46.5608 32.907H46.5762C46.6783 32.6975 46.8316 32.5289 47.036 32.4012C47.2454 32.2683 47.4753 32.2019 47.7257 32.2019C47.8636 32.2019 47.9786 32.2147 48.0705 32.2402L48.0016 32.7307C47.9198 32.7 47.7972 32.6847 47.6337 32.6847C47.3323 32.6847 47.0819 32.7997 46.8827 33.0296C46.6834 33.2544 46.5838 33.5916 46.5838 34.0411V35.8804H46.0627V33.0832Z" fill="#00FEFF"/>
<path d="M53.7595 32.7384C54.1222 33.096 54.3036 33.5456 54.3036 34.0871C54.3036 34.6287 54.1222 35.0783 53.7595 35.4359C53.4019 35.7935 52.9446 35.9723 52.3877 35.9723C51.836 35.9723 51.3787 35.7935 51.016 35.4359C50.6584 35.0783 50.4795 34.6287 50.4795 34.0871C50.4795 33.5456 50.6584 33.096 51.016 32.7384C51.3787 32.3807 51.836 32.2019 52.3877 32.2019C52.9446 32.2019 53.4019 32.3807 53.7595 32.7384ZM53.3763 35.1217C53.6267 34.8458 53.7518 34.501 53.7518 34.0871C53.7518 33.6733 53.6267 33.3284 53.3763 33.0526C53.126 32.7767 52.7965 32.6387 52.3877 32.6387C51.9841 32.6387 51.6572 32.7767 51.4068 33.0526C51.1565 33.3284 51.0313 33.6733 51.0313 34.0871C51.0313 34.4958 51.1565 34.8381 51.4068 35.114C51.6572 35.3899 51.9841 35.5279 52.3877 35.5279C52.7965 35.5279 53.126 35.3925 53.3763 35.1217Z" fill="#00FEFF"/>
<path d="M56.9423 32.2939V32.7307H56.0994V35.8804H55.5782V32.7307H54.8272V32.2939H55.5782V31.313C55.5782 30.8991 55.6804 30.5773 55.8848 30.3474C56.0891 30.1124 56.3931 29.9948 56.7967 29.9948C56.9602 29.9948 57.1033 30.0127 57.2259 30.0485L57.1339 30.5083C57.0113 30.4725 56.8913 30.4547 56.7737 30.4547C56.5132 30.4547 56.3344 30.5338 56.2373 30.6922C56.1453 30.8506 56.0994 31.0779 56.0994 31.3743V32.2939H56.9423Z" fill="#00FEFF"/>
<path d="M60.3245 30.0868V33.9109H60.3475L62.0028 32.2939H62.7538L60.9452 33.9339L62.9377 35.8804H62.1714L60.3475 33.9952H60.3245V35.8804H59.8034V30.0868H60.3245Z" fill="#00FEFF"/>
<path d="M63.664 32.2939H64.1621C64.1825 32.5493 64.1927 32.7537 64.1927 32.907H64.2081C64.3051 32.7026 64.4686 32.534 64.6985 32.4012C64.9335 32.2683 65.1788 32.2019 65.4342 32.2019C65.8787 32.2019 66.2159 32.3348 66.4458 32.6004C66.6808 32.8661 66.7983 33.2263 66.7983 33.681V35.8804H66.2772V33.8955C66.2772 33.4919 66.2031 33.1828 66.055 32.9683C65.9119 32.7486 65.6616 32.6387 65.3039 32.6387C65.0025 32.6387 64.7445 32.7614 64.5299 33.0066C64.3205 33.2467 64.2157 33.5916 64.2157 34.0411V35.8804H63.6946V33.0832C63.6946 32.7767 63.6844 32.5136 63.664 32.2939Z" fill="#00FEFF"/>
<path d="M71.1669 32.7384C71.5296 33.096 71.711 33.5456 71.711 34.0871C71.711 34.6287 71.5296 35.0783 71.1669 35.4359C70.8093 35.7935 70.352 35.9723 69.7951 35.9723C69.2434 35.9723 68.7861 35.7935 68.4234 35.4359C68.0658 35.0783 67.8869 34.6287 67.8869 34.0871C67.8869 33.5456 68.0658 33.096 68.4234 32.7384C68.7861 32.3807 69.2434 32.2019 69.7951 32.2019C70.352 32.2019 70.8093 32.3807 71.1669 32.7384ZM70.7837 35.1217C71.0341 34.8458 71.1592 34.501 71.1592 34.0871C71.1592 33.6733 71.0341 33.3284 70.7837 33.0526C70.5334 32.7767 70.2038 32.6387 69.7951 32.6387C69.3915 32.6387 69.0646 32.7767 68.8142 33.0526C68.5639 33.3284 68.4387 33.6733 68.4387 34.0871C68.4387 34.4958 68.5639 34.8381 68.8142 35.114C69.0646 35.3899 69.3915 35.5279 69.7951 35.5279C70.2038 35.5279 70.5334 35.3925 70.7837 35.1217Z" fill="#00FEFF"/>
<path d="M72.3419 32.2939H72.9013L73.7673 35.206H73.7826L74.7482 32.2939H75.254L76.2349 35.206H76.2503L77.1086 32.2939H77.6603L76.5262 35.8804H75.9591L75.0011 32.9759H74.9858L74.0432 35.8804H73.4761L72.3419 32.2939Z" fill="#00FEFF"/>
<path d="M79.0865 30.0868V35.8804H78.5653V30.0868H79.0865Z" fill="#00FEFF"/>
<path d="M80.7721 33.8112H83.2167C83.2014 33.4638 83.089 33.1828 82.8795 32.9683C82.6752 32.7486 82.3916 32.6387 82.0289 32.6387C81.6917 32.6387 81.403 32.7562 81.1629 32.9913C80.9279 33.2212 80.7976 33.4945 80.7721 33.8112ZM83.7455 33.9798C83.7455 34.082 83.7429 34.1638 83.7378 34.2251H80.7644C80.7746 34.5878 80.9049 34.8969 81.1552 35.1523C81.4056 35.4027 81.7121 35.5279 82.0749 35.5279C82.3252 35.5279 82.5525 35.4691 82.7569 35.3516C82.9613 35.229 83.1171 35.0808 83.2244 34.9071L83.6152 35.2137C83.2167 35.7194 82.7033 35.9723 82.0749 35.9723C81.5435 35.9723 81.1016 35.7935 80.7491 35.4359C80.3966 35.0783 80.2203 34.6287 80.2203 34.0871C80.2203 33.5507 80.394 33.1037 80.7414 32.746C81.0888 32.3833 81.518 32.2019 82.0289 32.2019C82.5704 32.2019 82.9919 32.3705 83.2933 32.7077C83.5948 33.0398 83.7455 33.4638 83.7455 33.9798Z" fill="#00FEFF"/>
<path d="M87.8168 35.275C87.6686 35.4946 87.472 35.6658 87.2267 35.7884C86.9815 35.911 86.726 35.9723 86.4604 35.9723C85.9086 35.9723 85.4616 35.7935 85.1193 35.4359C84.777 35.0732 84.6058 34.6236 84.6058 34.0871C84.6058 33.5507 84.777 33.1037 85.1193 32.746C85.4616 32.3833 85.9086 32.2019 86.4604 32.2019C86.726 32.2019 86.9815 32.2658 87.2267 32.3935C87.472 32.5161 87.6686 32.6898 87.8168 32.9146H87.8321V30.0868H88.3532V35.8804H87.8321V35.275H87.8168ZM85.5178 33.0526C85.2776 33.3284 85.1576 33.6733 85.1576 34.0871C85.1576 34.501 85.2776 34.8458 85.5178 35.1217C85.763 35.3925 86.0951 35.5279 86.514 35.5279C86.9125 35.5279 87.2421 35.3925 87.5026 35.1217C87.7632 34.8458 87.8934 34.501 87.8934 34.0871C87.8934 33.6733 87.7632 33.3284 87.5026 33.0526C87.2421 32.7767 86.9125 32.6387 86.514 32.6387C86.0951 32.6387 85.763 32.7767 85.5178 33.0526Z" fill="#00FEFF"/>
<path d="M89.5619 36.9992L89.9374 36.6007C90.0856 36.7898 90.2848 36.9456 90.5352 37.0682C90.7855 37.1959 91.0435 37.2598 91.3092 37.2598C91.7945 37.2598 92.1496 37.1295 92.3744 36.869C92.5992 36.6084 92.7116 36.2687 92.7116 35.8497V35.1753H92.6963C92.5634 35.3899 92.3693 35.5611 92.1138 35.6888C91.8635 35.8165 91.6055 35.8804 91.3398 35.8804C90.7881 35.8804 90.341 35.7092 89.9987 35.3669C89.6564 35.0246 89.4853 34.5878 89.4853 34.0565C89.4853 33.5354 89.6564 33.096 89.9987 32.7384C90.3461 32.3807 90.7932 32.2019 91.3398 32.2019C91.6106 32.2019 91.8686 32.2658 92.1138 32.3935C92.3642 32.5161 92.5583 32.6898 92.6963 32.9146H92.7116V32.2939H93.2327V35.8497C93.2327 36.0694 93.2021 36.2789 93.1407 36.4781C93.0845 36.6774 92.99 36.8741 92.8572 37.0682C92.7244 37.2675 92.5226 37.4258 92.2518 37.5433C91.9861 37.6608 91.6643 37.7196 91.2862 37.7196C90.9592 37.7196 90.6425 37.6557 90.3359 37.528C90.0345 37.4003 89.7765 37.224 89.5619 36.9992ZM90.3972 33.0449C90.1571 33.3157 90.0371 33.6478 90.0371 34.0411C90.0371 34.4345 90.1571 34.7666 90.3972 35.0374C90.6425 35.3031 90.9745 35.4359 91.3935 35.4359C91.7971 35.4359 92.1266 35.3082 92.3821 35.0527C92.6426 34.7922 92.7729 34.455 92.7729 34.0411C92.7729 33.658 92.6401 33.3284 92.3744 33.0526C92.1138 32.7767 91.7869 32.6387 91.3935 32.6387C90.9745 32.6387 90.6425 32.7741 90.3972 33.0449Z" fill="#00FEFF"/>
<path d="M94.8791 33.8112H97.3237C97.3084 33.4638 97.196 33.1828 96.9865 32.9683C96.7822 32.7486 96.4986 32.6387 96.1359 32.6387C95.7987 32.6387 95.51 32.7562 95.2699 32.9913C95.0349 33.2212 94.9046 33.4945 94.8791 33.8112ZM97.8525 33.9798C97.8525 34.082 97.85 34.1638 97.8448 34.2251H94.8714C94.8816 34.5878 95.0119 34.8969 95.2623 35.1523C95.5126 35.4027 95.8191 35.5279 96.1819 35.5279C96.4322 35.5279 96.6596 35.4691 96.8639 35.3516C97.0683 35.229 97.2241 35.0808 97.3314 34.9071L97.7222 35.2137C97.3237 35.7194 96.8103 35.9723 96.1819 35.9723C95.6505 35.9723 95.2086 35.7935 94.8561 35.4359C94.5036 35.0783 94.3273 34.6287 94.3273 34.0871C94.3273 33.5507 94.501 33.1037 94.8484 32.746C95.1958 32.3833 95.625 32.2019 96.1359 32.2019C96.6774 32.2019 97.0989 32.3705 97.4004 32.7077C97.7018 33.0398 97.8525 33.4638 97.8525 33.9798Z" fill="#00FEFF"/>
</svg>
