<svg width="60" height="60" viewBox="0 0 60 60" fill="none" xmlns="http://www.w3.org/2000/svg">
<path fill-rule="evenodd" clip-rule="evenodd" d="M49.985 23.6825C49.983 23.6688 49.9804 23.6558 49.9778 23.6429L49.9776 23.6416C49.9753 23.6302 49.973 23.619 49.9713 23.6074L49.9709 23.6053C49.9622 23.5573 49.9536 23.5093 49.9412 23.4637C49.9385 23.4535 49.9354 23.4434 49.932 23.4333L49.9243 23.4109L49.9228 23.4069C49.9197 23.3979 49.9166 23.3889 49.9138 23.38C49.9 23.3375 49.8862 23.2963 49.87 23.255C49.8588 23.2263 49.845 23.1975 49.8312 23.1713C49.8137 23.1312 49.795 23.0938 49.7725 23.0575C49.7617 23.0376 49.7495 23.0183 49.7374 22.9992L49.7238 22.9775C49.7081 22.9523 49.692 22.9279 49.6747 22.904C49.6671 22.8934 49.6593 22.8829 49.6512 22.8725C49.6325 22.8475 49.6125 22.8225 49.5925 22.7988C49.565 22.7662 49.5363 22.735 49.5062 22.705L49.4871 22.6855C49.4714 22.6692 49.4557 22.653 49.4387 22.6387C49.4062 22.61 49.3738 22.5825 49.3412 22.5563L49.3176 22.5381C49.2997 22.5242 49.282 22.5106 49.2637 22.4975C49.2587 22.4944 49.2541 22.4906 49.2494 22.4869C49.2447 22.4832 49.24 22.4794 49.235 22.4763L30.9537 10.2888C30.3762 9.90375 29.625 9.90375 29.0463 10.2888L10.7662 22.4763C10.7612 22.4794 10.7566 22.4832 10.7519 22.4869C10.7472 22.4906 10.7425 22.4944 10.7375 22.4975C10.71 22.5162 10.685 22.5363 10.66 22.5563C10.6262 22.5825 10.5938 22.61 10.5625 22.6387C10.5435 22.6548 10.5253 22.6732 10.5073 22.6914L10.4938 22.705C10.4781 22.7207 10.4628 22.7367 10.4479 22.753C10.4344 22.7679 10.4213 22.7832 10.4088 22.7988C10.3875 22.8225 10.3675 22.8475 10.3488 22.8725C10.3369 22.8885 10.3253 22.9048 10.314 22.9214C10.3015 22.9398 10.2893 22.9584 10.2775 22.9775C10.26 23.0037 10.2438 23.03 10.2275 23.0575C10.2062 23.0938 10.1875 23.1312 10.1688 23.1713L10.1678 23.1731C10.1556 23.1989 10.1422 23.2269 10.1312 23.255C10.1212 23.2788 10.1123 23.3026 10.104 23.3267C10.0979 23.3443 10.092 23.3621 10.0862 23.38L10.0781 23.4048C10.0718 23.424 10.0652 23.4439 10.06 23.4637C10.0475 23.51 10.0388 23.5587 10.03 23.6075L10.0259 23.627C10.022 23.6451 10.0181 23.6631 10.0162 23.6825C10.0062 23.755 10 23.83 10 23.9062V36.0938C10 36.1688 10.0062 36.2438 10.0162 36.3187C10.018 36.3359 10.0219 36.3536 10.0257 36.3716L10.0259 36.3727L10.03 36.3925C10.0359 36.4252 10.0417 36.4573 10.0488 36.4893C10.0522 36.505 10.0559 36.5206 10.06 36.5363C10.0652 36.5564 10.0717 36.5759 10.0781 36.5952L10.0862 36.62L10.0903 36.6323C10.1028 36.6697 10.1155 36.708 10.1312 36.7463C10.1385 36.7641 10.1469 36.7819 10.1552 36.7998L10.1559 36.8013L10.1688 36.8287C10.1806 36.8532 10.1924 36.8773 10.2049 36.9014C10.2122 36.9154 10.2197 36.9295 10.2275 36.9437L10.2297 36.9474C10.2452 36.9724 10.2608 36.9974 10.2775 37.0225C10.3 37.0587 10.3237 37.0925 10.3488 37.1262C10.3675 37.1525 10.3875 37.1775 10.4088 37.2012C10.4266 37.2224 10.4456 37.2443 10.4653 37.2651C10.4746 37.2749 10.4841 37.2845 10.4938 37.2938C10.5162 37.3175 10.5388 37.34 10.5625 37.3613C10.5938 37.39 10.6262 37.4175 10.66 37.4437C10.685 37.4637 10.71 37.4838 10.7375 37.5025C10.7425 37.5056 10.7472 37.5094 10.7518 37.5131C10.7565 37.5168 10.7612 37.5206 10.7662 37.5237L29.0463 49.7112C29.335 49.9037 29.6675 50 30 50C30.3325 50 30.665 49.9037 30.9537 49.7112L49.235 37.5237C49.24 37.5206 49.2447 37.5169 49.2494 37.5131C49.254 37.5094 49.2587 37.5056 49.2637 37.5025C49.282 37.4894 49.2997 37.4758 49.3176 37.4619L49.3412 37.4437C49.3738 37.4175 49.4062 37.39 49.4387 37.3613C49.4621 37.3404 49.483 37.3183 49.5051 37.295L49.5062 37.2938C49.5363 37.265 49.565 37.2325 49.5925 37.2012C49.6125 37.1775 49.6325 37.1525 49.6512 37.1262C49.6775 37.0925 49.7012 37.0587 49.7238 37.0225L49.7403 36.9962C49.7514 36.9787 49.7625 36.9612 49.7725 36.9437C49.795 36.905 49.8137 36.8675 49.8312 36.8287C49.845 36.8013 49.8588 36.7737 49.87 36.7463C49.8792 36.7221 49.8876 36.698 49.8957 36.6741L49.9138 36.62C49.9171 36.6097 49.9207 36.5994 49.9243 36.5891L49.9312 36.5691C49.9349 36.5583 49.9384 36.5474 49.9412 36.5363C49.9537 36.4888 49.9625 36.4412 49.9713 36.3925C49.9724 36.3846 49.9739 36.3766 49.9754 36.3687L49.9785 36.3531C49.9809 36.3415 49.9832 36.33 49.985 36.3187C49.995 36.2438 50 36.1688 50 36.0938V23.9062C50 23.83 49.995 23.755 49.985 23.6825ZM31.7188 14.9313L45.1863 23.9088L39.1713 27.9325L31.7188 22.9475V14.9313ZM28.2812 14.9313V22.9475L20.83 27.9325L14.8137 23.9088L28.2812 14.9313ZM13.4375 27.1238L17.7388 30L13.4375 32.8762V27.1238ZM28.2812 45.0687L14.8137 36.0912L20.83 32.0687L28.2812 37.0525V45.0687ZM30 34.0662L23.9213 30L30 25.9338L36.08 30L30 34.0662ZM31.7188 45.0687V37.0525L39.1713 32.0687L45.1863 36.0912L31.7188 45.0687ZM46.5625 32.8762L42.2625 30L46.5625 27.1238V32.8762Z" fill="#DFE6E9"/>
</svg>
