<svg width="60" height="60" viewBox="0 0 60 60" fill="none" xmlns="http://www.w3.org/2000/svg">
<path fill-rule="evenodd" clip-rule="evenodd" d="M0.000222625 24.2052C7.42532e-05 24.2441 0 24.2831 0 24.322C0 27.6012 0.526112 30.7575 1.49853 33.7111C0.537687 30.7197 0.0125637 27.5249 0.000222625 24.2052ZM21.7514 53.1738C24.3721 53.9216 27.1393 54.322 30 54.322C32.8599 54.322 35.6264 53.9218 38.2465 53.1744C37.642 52.9172 37.4062 52.3104 37.4062 51.7685C37.4062 51.4362 37.4106 50.8505 37.4165 50.0664C37.4284 48.4802 37.4464 46.0826 37.4464 43.331C37.4464 40.4649 36.4821 38.5899 35.4107 37.639C42.0937 36.8756 49.1116 34.2774 49.1116 22.4649C49.1116 19.1167 47.9464 16.3711 46.0312 14.2149C46.3393 13.4381 47.3705 10.3042 45.7366 6.07204C45.7366 6.07204 43.2321 5.24168 37.5 9.21936C35.1027 8.53632 32.5312 8.2015 29.9866 8.18811C27.4286 8.2015 24.8705 8.53632 22.4732 9.21936C16.7411 5.24168 14.2232 6.07204 14.2232 6.07204C12.5893 10.3042 13.6205 13.4381 13.9286 14.2149C12.0134 16.3578 10.8482 19.1033 10.8482 22.4649C10.8482 34.2506 17.8527 36.889 24.5089 37.6658C23.6518 38.4292 22.875 39.7952 22.6071 41.7774C20.8929 42.5676 16.5536 43.9203 13.875 39.2194C13.875 39.2194 12.2946 36.2595 9.28125 36.0453C9.28125 36.0453 6.36161 36.0051 9.08036 37.9203C9.08036 37.9203 11.0491 38.8711 12.4152 42.4203C12.4152 42.4203 14.183 48.4069 22.5268 46.5452C22.5342 47.9728 22.5458 49.2023 22.5546 50.1396C22.5617 50.8907 22.567 51.4542 22.567 51.7819C22.567 52.3157 22.3325 52.9068 21.7514 53.1738ZM58.4642 33.8235C59.449 30.7996 59.9873 27.5662 59.9998 24.2052C59.9999 24.2441 60 24.2831 60 24.322C60 27.6428 59.4604 30.8376 58.4642 33.8235Z" fill="#DFE6E9"/>
</svg>
