<svg width="60" height="60" viewBox="0 0 60 60" fill="none" xmlns="http://www.w3.org/2000/svg">
<path fill-rule="evenodd" clip-rule="evenodd" d="M20.1216 29.75C20.1216 24.4324 24.4324 20.1216 29.75 20.1216C35.0676 20.1216 39.3784 24.4324 39.3784 29.75C39.3784 35.0676 35.0676 39.3784 29.75 39.3784C24.4324 39.3784 20.1216 35.0676 20.1216 29.75ZM23.5001 29.75C23.5001 33.2018 26.2982 35.9999 29.75 35.9999C33.2018 35.9999 35.9999 33.2018 35.9999 29.75C35.9999 26.2982 33.2018 23.5001 29.75 23.5001C26.2982 23.5001 23.5001 26.2982 23.5001 29.75Z" fill="#DFE6E9"/>
<path d="M39.7587 21.9911C41.0014 21.9911 42.0089 20.9839 42.0089 19.7413C42.0089 18.4986 41.0014 17.4913 39.7587 17.4913C38.5162 17.4913 37.5089 18.4986 37.5089 19.7413C37.5089 20.9839 38.5162 21.9911 39.7587 21.9911Z" fill="#DFE6E9"/>
<path fill-rule="evenodd" clip-rule="evenodd" d="M22.0193 11.1129C24.0193 11.0215 24.6578 11 29.75 11C34.8422 11 35.4807 11.0215 37.4807 11.1129C39.4763 11.2039 40.8394 11.5209 42.032 11.9844C43.2649 12.4636 44.3105 13.1047 45.353 14.1471C46.3954 15.1895 47.0366 16.2351 47.5157 17.468C47.9791 18.6606 48.2961 20.0237 48.3871 22.0193C48.4785 24.0193 48.5 24.6578 48.5 29.75C48.5 34.8422 48.4785 35.4807 48.3871 37.4807C48.2961 39.4763 47.9791 40.8394 47.5157 42.032C47.0366 43.2649 46.3954 44.3105 45.353 45.353C44.3105 46.3954 43.2649 47.0366 42.032 47.5157C40.8394 47.9791 39.4763 48.2961 37.4807 48.3871C35.4807 48.4785 34.8422 48.5 29.75 48.5C24.6578 48.5 24.0193 48.4785 22.0193 48.3871C20.0237 48.2961 18.6606 47.9791 17.468 47.5157C16.235 47.0366 15.1893 46.3954 14.147 45.353C13.1046 44.3105 12.4634 43.2649 11.9843 42.032C11.5208 40.8394 11.2039 39.4763 11.1127 37.4807C11.0215 35.4807 11 34.8422 11 29.75C11 24.6578 11.0215 24.0193 11.1127 22.0193C11.2039 20.0237 11.5208 18.6606 11.9843 17.468C12.4634 16.2351 13.1046 15.1895 14.147 14.1471C15.1893 13.1047 16.235 12.4636 17.468 11.9844C18.6606 11.5209 20.0237 11.2039 22.0193 11.1129ZM37.3267 14.4877C35.3494 14.3975 34.7565 14.3784 29.75 14.3784C24.7435 14.3784 24.1506 14.3975 22.1733 14.4877C20.3452 14.5712 19.3525 14.8766 18.6918 15.1333C17.8166 15.4734 17.192 15.8798 16.5358 16.5359C15.8797 17.192 15.4734 17.8167 15.1333 18.6918C14.8766 19.3525 14.571 20.3452 14.4876 22.1733C14.3974 24.1506 14.3784 24.7435 14.3784 29.75C14.3784 34.7565 14.3974 35.3494 14.4876 37.3267C14.571 39.1548 14.8766 40.1475 15.1333 40.8082C15.4734 41.6834 15.8797 42.308 16.5358 42.9641C17.192 43.6203 17.8166 44.0266 18.6918 44.3667C19.3525 44.6234 20.3452 44.929 22.1733 45.0123C24.1503 45.1025 24.7432 45.1216 29.75 45.1216C34.7568 45.1216 35.3498 45.1025 37.3267 45.0123C39.1548 44.929 40.1475 44.6234 40.8082 44.3667C41.6834 44.0266 42.308 43.6203 42.9641 42.9641C43.6203 42.308 44.0266 41.6834 44.3667 40.8082C44.6234 40.1475 44.929 39.1548 45.0123 37.3267C45.1025 35.3494 45.1216 34.7565 45.1216 29.75C45.1216 24.7435 45.1025 24.1506 45.0123 22.1733C44.929 20.3452 44.6234 19.3525 44.3667 18.6918C44.0266 17.8167 43.6203 17.192 42.9641 16.5359C42.308 15.8798 41.6834 15.4734 40.8082 15.1333C40.1475 14.8766 39.1548 14.5712 37.3267 14.4877Z" fill="#DFE6E9"/>
</svg>
