<svg width="60" height="60" viewBox="0 0 60 60" fill="none" xmlns="http://www.w3.org/2000/svg">
<path d="M43.1667 39.9119C44.161 34.5988 46.1145 23.0871 46.5659 18.3433C46.5933 17.9488 46.5764 17.5524 46.5155 17.1616C46.4799 16.8469 46.3275 16.5569 46.0885 16.3492C45.729 16.0576 45.1742 15.9961 44.9259 16.0002C43.7976 16.0203 42.0664 16.6222 33.7351 20.0876C30.8172 21.3015 24.9854 23.8135 16.2398 27.6238C14.8196 28.1884 14.0756 28.7408 14.0079 29.2811C13.8934 30.1941 15.0368 30.5537 16.5938 31.0432C16.8055 31.1097 17.0249 31.1787 17.2498 31.2518C18.7817 31.7498 20.8421 32.3323 21.9133 32.3554C22.885 32.3763 23.9694 31.9758 25.1666 31.1537C33.338 25.6379 37.556 22.8499 37.8208 22.7897C38.0076 22.7476 38.2661 22.6949 38.442 22.8502C38.6178 23.0056 38.6001 23.3013 38.5816 23.3806C38.4683 23.8635 33.9795 28.0366 31.6572 30.1956C30.9335 30.8684 30.4202 31.3456 30.3152 31.4547C30.0798 31.6993 29.8399 31.9307 29.6093 32.153C28.1866 33.5249 27.1202 34.5533 29.669 36.2329C30.8946 37.0405 31.8752 37.7083 32.8536 38.3746C33.9213 39.1017 34.9863 39.827 36.3641 40.7301C36.7152 40.9603 37.0505 41.1993 37.3771 41.4321C38.6201 42.3183 39.737 43.1145 41.1165 42.9875C41.918 42.9138 42.7462 42.16 43.1667 39.9119Z" fill="#DFE6E9"/>
</svg>
