<svg width="95" height="95" viewBox="0 0 95 95" fill="none" xmlns="http://www.w3.org/2000/svg">
<path d="M20.7815 58.2588C20.6972 58.0604 20.695 57.8368 20.7753 57.637C20.8557 57.4373 21.012 57.2778 21.2099 57.1936L24.5776 55.7616C24.7755 55.6774 24.9989 55.6755 25.1985 55.7562C25.3981 55.8369 25.5576 55.9937 25.642 56.192C25.7263 56.3903 25.7285 56.614 25.6482 56.8137C25.5678 57.0135 25.4115 57.173 25.2135 57.2572L21.8519 58.6866C21.7537 58.7293 21.648 58.7521 21.5409 58.7537C21.4338 58.7552 21.3275 58.7356 21.228 58.6958C21.1285 58.656 21.0378 58.5969 20.9612 58.5219C20.8846 58.4469 20.8235 58.3575 20.7815 58.2588Z" fill="#5262EE"/>
<path d="M21.2303 64.0727L19.793 60.6925C19.7087 60.4941 19.7064 60.2705 19.7868 60.0707C19.8671 59.871 20.0234 59.7114 20.2214 59.6273C20.4193 59.5431 20.6427 59.5412 20.8423 59.6219C21.0419 59.7026 21.2014 59.8594 21.2858 60.0577L22.7231 63.4379C22.8074 63.6362 22.8097 63.8599 22.7294 64.0597C22.649 64.2594 22.4927 64.4189 22.2947 64.5031C22.0968 64.5873 21.8734 64.5892 21.6738 64.5085C21.4742 64.4278 21.3147 64.271 21.2303 64.0727Z" fill="#5262EE"/>
<path d="M13.9866 61.1481C13.9023 60.9498 13.9001 60.7261 13.9804 60.5264C14.0607 60.3266 14.2171 60.1671 14.415 60.0829L17.7827 58.6509C17.9806 58.5668 18.204 58.5648 18.4036 58.6455C18.6032 58.7262 18.7627 58.883 18.847 59.0814C18.9314 59.2797 18.9336 59.5033 18.8533 59.7031C18.773 59.9029 18.6166 60.0624 18.4186 60.1465L15.051 61.5785C14.853 61.6627 14.6297 61.6647 14.4301 61.5839C14.2305 61.5032 14.071 61.3464 13.9866 61.1481Z" fill="#5262EE"/>
<path d="M18.334 57.2614L16.8992 53.8872C16.8149 53.6889 16.8126 53.4652 16.893 53.2655C16.9733 53.0657 17.1296 52.9062 17.3276 52.822C17.5255 52.7378 17.7489 52.7359 17.9485 52.8166C18.1481 52.8974 18.3076 53.0541 18.392 53.2525L19.8268 56.6267C19.9111 56.825 19.9134 57.0487 19.833 57.2484C19.7527 57.4482 19.5963 57.6077 19.3984 57.6919C19.2004 57.7761 18.9771 57.778 18.7775 57.6973C18.5779 57.6166 18.4183 57.4598 18.334 57.2614Z" fill="#5262EE"/>
<path d="M72.2913 68.0831C72.2818 67.8848 72.3513 67.6907 72.4846 67.5437C72.6179 67.3967 72.804 67.3088 73.002 67.2993L76.3708 67.1376C76.5688 67.1281 76.7625 67.1978 76.9092 67.3313C77.056 67.4649 77.1438 67.6514 77.1533 67.8498C77.1629 68.0482 77.0933 68.2422 76.96 68.3892C76.8267 68.5362 76.6406 68.6242 76.4426 68.6337L73.0798 68.7951C72.9813 68.8006 72.8826 68.7865 72.7896 68.7536C72.6965 68.7208 72.6109 68.6698 72.5376 68.6036C72.4642 68.5374 72.4048 68.4574 72.3625 68.368C72.3202 68.2787 72.296 68.1819 72.2913 68.0831Z" fill="#9699AB"/>
<path d="M70.8214 73.2525L70.6591 69.8712C70.6496 69.6728 70.7191 69.4788 70.8524 69.3318C70.9857 69.1847 71.1718 69.0968 71.3698 69.0873C71.5678 69.0778 71.7615 69.1475 71.9083 69.2811C72.0551 69.4146 72.1428 69.6011 72.1524 69.7995L72.3147 73.1809C72.3242 73.3793 72.2547 73.5733 72.1214 73.7204C71.9881 73.8674 71.8019 73.9553 71.6039 73.9648C71.4059 73.9743 71.2122 73.9046 71.0655 73.771C70.9187 73.6375 70.8309 73.4509 70.8214 73.2525Z" fill="#9699AB"/>
<path d="M65.4942 68.4095C65.4846 68.2111 65.5542 68.017 65.6875 67.87C65.8208 67.723 66.0069 67.6351 66.2049 67.6256L69.5737 67.4639C69.7717 67.4544 69.9654 67.5241 70.1122 67.6576C70.2589 67.7912 70.3467 67.9777 70.3562 68.1761C70.3657 68.3745 70.2962 68.5685 70.1629 68.7156C70.0297 68.8626 69.8435 68.9505 69.6455 68.96L66.2767 69.1217C66.0787 69.1312 65.885 69.0615 65.7383 68.9279C65.5915 68.7944 65.5037 68.6078 65.4942 68.4095Z" fill="#9699AB"/>
<path d="M70.4942 66.4391L70.3322 63.0637C70.3227 62.8653 70.3922 62.6713 70.5255 62.5243C70.6588 62.3772 70.8449 62.2893 71.0429 62.2798C71.2409 62.2703 71.4346 62.34 71.5814 62.4736C71.7282 62.6072 71.8159 62.7936 71.8255 62.992L71.9875 66.3674C71.997 66.5658 71.9275 66.7599 71.7942 66.9069C71.6609 67.0539 71.4748 67.1418 71.2767 67.1513C71.0787 67.1608 70.885 67.0911 70.7383 66.9576C70.5915 66.824 70.5037 66.6375 70.4942 66.4391Z" fill="#9699AB"/>
<path d="M33.3403 19.8999C33.9627 21.3636 35.6515 22.0466 37.1124 21.4254C38.5733 20.8042 39.253 19.114 38.6306 17.6503C38.0082 16.1866 36.3194 15.5036 34.8585 16.1248C33.3976 16.746 32.7179 18.4362 33.3403 19.8999Z" fill="#32AD67"/>
<path d="M63.9028 2.99718C64.2835 3.89252 65.3165 4.31029 66.2101 3.9303C67.1037 3.55032 67.5195 2.51648 67.1388 1.62114C66.7581 0.725809 65.7251 0.308035 64.8314 0.688016C63.9378 1.068 63.5221 2.10185 63.9028 2.99718Z" fill="#0B0E37"/>
<path d="M39.4095 83.2047C40.07 84.7581 41.8648 85.4819 43.4182 84.8214C44.9716 84.1609 45.6954 82.3661 45.0349 80.8127C44.3743 79.2593 42.5796 78.5355 41.0262 79.196C39.4728 79.8566 38.749 81.6513 39.4095 83.2047Z" fill="#0B0E37"/>
<path d="M48.2853 43.0167C49.4296 45.7079 52.5389 46.9618 55.23 45.8175C57.9212 44.6731 59.1751 41.5639 58.0307 38.8727C56.8864 36.1816 53.7772 34.9277 51.086 36.072C48.3949 37.2163 47.141 40.3256 48.2853 43.0167Z" fill="#5262EE"/>
</svg>
