<svg width="59" height="60" viewBox="0 0 59 60" fill="none" xmlns="http://www.w3.org/2000/svg">
<path d="M20.6432 52.0766C20.4276 52.0766 20.2209 51.9912 20.0685 51.8391C19.9162 51.687 19.8306 51.4807 19.8306 51.2656V47.6061C19.8306 47.391 19.9162 47.1847 20.0685 47.0326C20.2209 46.8805 20.4276 46.795 20.6432 46.795C20.8587 46.795 21.0654 46.8805 21.2178 47.0326C21.3701 47.1847 21.4557 47.391 21.4557 47.6061V51.2591C21.4566 51.3661 21.4362 51.4723 21.3957 51.5715C21.3553 51.6706 21.2956 51.7608 21.2201 51.8368C21.1445 51.9128 21.0546 51.9731 20.9556 52.0143C20.8566 52.0554 20.7504 52.0766 20.6432 52.0766Z" fill="#5262EE"/>
<path d="M26.1691 53.9388H22.496C22.2805 53.9388 22.0738 53.8533 21.9214 53.7012C21.769 53.5491 21.6833 53.3428 21.6833 53.1277C21.6833 52.9126 21.769 52.7063 21.9214 52.5542C22.0738 52.4021 22.2805 52.3167 22.496 52.3167H26.1691C26.3846 52.3167 26.5913 52.4021 26.7437 52.5542C26.8961 52.7063 26.9817 52.9126 26.9817 53.1277C26.9817 53.3428 26.8961 53.5491 26.7437 53.7012C26.5913 53.8533 26.3846 53.9388 26.1691 53.9388Z" fill="#5262EE"/>
<path d="M20.6432 59.4603C20.4277 59.4603 20.2209 59.3748 20.0686 59.2227C19.9162 59.0706 19.8306 58.8644 19.8306 58.6493V54.9898C19.8306 54.7747 19.9162 54.5684 20.0686 54.4163C20.2209 54.2642 20.4277 54.1787 20.6432 54.1787C20.8587 54.1787 21.0654 54.2642 21.2178 54.4163C21.3702 54.5684 21.4558 54.7747 21.4558 54.9898V58.6493C21.4558 58.8644 21.3702 59.0706 21.2178 59.2227C21.0654 59.3748 20.8587 59.4603 20.6432 59.4603Z" fill="#5262EE"/>
<path d="M18.7678 53.9388H15.1012C14.8857 53.9388 14.679 53.8533 14.5266 53.7012C14.3742 53.5491 14.2886 53.3428 14.2886 53.1277C14.2886 52.9126 14.3742 52.7063 14.5266 52.5542C14.679 52.4021 14.8857 52.3167 15.1012 52.3167H18.7678C18.9833 52.3167 19.19 52.4021 19.3424 52.5542C19.4948 52.7063 19.5804 52.9126 19.5804 53.1277C19.5804 53.3428 19.4948 53.5491 19.3424 53.7012C19.19 53.8533 18.9833 53.9388 18.7678 53.9388Z" fill="#5262EE"/>
<path d="M55.0041 3.32878C54.8683 3.32878 54.738 3.27491 54.6419 3.17905C54.5459 3.08319 54.4919 2.95318 54.4919 2.81761V0.511201C54.4919 0.37563 54.5459 0.245626 54.6419 0.149763C54.738 0.0538995 54.8683 3.05176e-05 55.0041 3.05176e-05C55.1399 3.05176e-05 55.2702 0.0538995 55.3662 0.149763C55.4623 0.245626 55.5162 0.37563 55.5162 0.511201V2.81352C55.5168 2.88099 55.5039 2.94791 55.4784 3.0104C55.4529 3.07289 55.4153 3.12973 55.3677 3.17763C55.3201 3.22553 55.2634 3.26353 55.201 3.28947C55.1386 3.31541 55.0717 3.32878 55.0041 3.32878Z" fill="#9699AB"/>
<path d="M58.4868 4.50241H56.1718C56.036 4.50241 55.9057 4.44854 55.8097 4.35267C55.7136 4.25681 55.6597 4.1268 55.6597 3.99123C55.6597 3.85566 55.7136 3.72563 55.8097 3.62977C55.9057 3.5339 56.036 3.48006 56.1718 3.48006H58.4868C58.6227 3.48006 58.7529 3.5339 58.849 3.62977C58.945 3.72563 58.999 3.85566 58.999 3.99123C58.999 4.1268 58.945 4.25681 58.849 4.35267C58.7529 4.44854 58.6227 4.50241 58.4868 4.50241Z" fill="#9699AB"/>
<path d="M55.0041 7.98241C54.8683 7.98241 54.738 7.92854 54.6419 7.83267C54.5459 7.73681 54.4919 7.60681 54.4919 7.47124V5.16483C54.4919 5.02926 54.5459 4.89923 54.6419 4.80336C54.738 4.7075 54.8683 4.65366 55.0041 4.65366C55.1399 4.65366 55.2702 4.7075 55.3662 4.80336C55.4623 4.89923 55.5162 5.02926 55.5162 5.16483V7.47124C55.5162 7.60681 55.4623 7.73681 55.3662 7.83267C55.2702 7.92854 55.1399 7.98241 55.0041 7.98241Z" fill="#9699AB"/>
<path d="M53.8221 4.50241H51.5112C51.3754 4.50241 51.2451 4.44854 51.149 4.35267C51.053 4.25681 50.999 4.1268 50.999 3.99123C50.999 3.85566 51.053 3.72563 51.149 3.62977C51.2451 3.5339 51.3754 3.48006 51.5112 3.48006H53.8221C53.9579 3.48006 54.0882 3.5339 54.1843 3.62977C54.2803 3.72563 54.3343 3.85566 54.3343 3.99123C54.3343 4.1268 54.2803 4.25681 54.1843 4.35267C54.0882 4.44854 53.9579 4.50241 53.8221 4.50241Z" fill="#9699AB"/>
<path d="M2.87897 32.5724C4.46953 32.5724 5.75892 31.2855 5.75892 29.698C5.75892 28.1105 4.46953 26.8236 2.87897 26.8236C1.28842 26.8236 -0.000976562 28.1105 -0.000976562 29.698C-0.000976562 31.2855 1.28842 32.5724 2.87897 32.5724Z" fill="#32AD67"/>
<path d="M55.499 46.6584C56.3275 46.6584 56.999 45.9869 56.999 45.1584C56.999 44.33 56.3275 43.6584 55.499 43.6584C54.6706 43.6584 53.999 44.33 53.999 45.1584C53.999 45.9869 54.6706 46.6584 55.499 46.6584Z" fill="#0B0E37"/>
<path d="M32.7041 27.7272C35.6285 27.7272 37.9991 25.3566 37.9991 22.4323C37.9991 19.5079 35.6285 17.1373 32.7041 17.1373C29.7798 17.1373 27.4092 19.5079 27.4092 22.4323C27.4092 25.3566 29.7798 27.7272 32.7041 27.7272Z" fill="#5262EE"/>
</svg>
