<svg width="54" height="59" viewBox="0 0 54 59" fill="none" xmlns="http://www.w3.org/2000/svg">
<path d="M14.313 23.2551C14.0985 23.2551 13.8929 23.1701 13.7412 23.0188C13.5896 22.8674 13.5044 22.6622 13.5044 22.4481V18.807C13.5044 18.593 13.5896 18.3877 13.7412 18.2364C13.8929 18.085 14.0985 18 14.313 18C14.5274 18 14.7331 18.085 14.8847 18.2364C15.0363 18.3877 15.1215 18.593 15.1215 18.807V22.4481C15.1215 22.6622 15.0363 22.8674 14.8847 23.0188C14.7331 23.1701 14.5274 23.2551 14.313 23.2551Z" fill="#32AD67"/>
<path d="M19.8179 25.1079H16.1665C15.952 25.1079 15.7464 25.0229 15.5947 24.8715C15.4431 24.7202 15.3579 24.5149 15.3579 24.3009C15.3579 24.0869 15.4431 23.8816 15.5947 23.7303C15.7464 23.5789 15.952 23.4939 16.1665 23.4939H19.8179C20.0324 23.4939 20.238 23.5789 20.3897 23.7303C20.5413 23.8816 20.6265 24.0869 20.6265 24.3009C20.6265 24.5149 20.5413 24.7202 20.3897 24.8715C20.238 25.0229 20.0324 25.1079 19.8179 25.1079Z" fill="#32AD67"/>
<path d="M14.313 30.602C14.0985 30.602 13.8929 30.517 13.7412 30.3656C13.5896 30.2143 13.5044 30.009 13.5044 29.795V26.1506C13.5044 25.9366 13.5896 25.7313 13.7412 25.58C13.8929 25.4287 14.0985 25.3436 14.313 25.3436C14.5274 25.3436 14.7331 25.4287 14.8847 25.58C15.0363 25.7313 15.1215 25.9366 15.1215 26.1506V29.7918C15.1219 29.898 15.1013 30.0033 15.0609 30.1016C15.0205 30.1999 14.961 30.2892 14.8858 30.3645C14.8107 30.4398 14.7214 30.4995 14.6231 30.5402C14.5248 30.581 14.4194 30.602 14.313 30.602Z" fill="#32AD67"/>
<path d="M12.4568 25.1079H8.80856C8.59411 25.1079 8.38846 25.0229 8.23682 24.8715C8.08519 24.7202 8 24.5149 8 24.3009C8 24.0869 8.08519 23.8816 8.23682 23.7303C8.38846 23.5789 8.59411 23.4939 8.80856 23.4939H12.4568C12.6712 23.4939 12.8769 23.5789 13.0285 23.7303C13.1801 23.8816 13.2653 24.0869 13.2653 24.3009C13.2653 24.5149 13.1801 24.7202 13.0285 24.8715C12.8769 25.0229 12.6712 25.1079 12.4568 25.1079Z" fill="#32AD67"/>
<path d="M41.0187 37.4957C40.7129 37.4957 40.4195 37.3744 40.2032 37.1585C39.987 36.9426 39.8655 36.6499 39.8655 36.3446V31.1511C39.8655 30.8458 39.987 30.553 40.2032 30.3372C40.4195 30.1213 40.7129 30 41.0187 30C41.3246 30 41.6179 30.1213 41.8342 30.3372C42.0505 30.553 42.172 30.8458 42.172 31.1511V36.3354C42.1732 36.4873 42.1442 36.638 42.0868 36.7787C42.0294 36.9194 41.9447 37.0474 41.8375 37.1553C41.7303 37.2632 41.6027 37.3487 41.4622 37.4071C41.3217 37.4656 41.171 37.4957 41.0187 37.4957Z" fill="#F7F8FC"/>
<path d="M48.861 40.1385H43.6482C43.3423 40.1385 43.049 40.0171 42.8327 39.8013C42.6164 39.5854 42.4949 39.2927 42.4949 38.9874C42.4949 38.6821 42.6164 38.3893 42.8327 38.1734C43.049 37.9576 43.3423 37.8363 43.6482 37.8363H48.861C49.1669 37.8363 49.4603 37.9576 49.6766 38.1734C49.8928 38.3893 50.0143 38.6821 50.0143 38.9874C50.0143 39.2927 49.8928 39.5854 49.6766 39.8013C49.4603 40.0171 49.1669 40.1385 48.861 40.1385Z" fill="#F7F8FC"/>
<path d="M41.0187 47.9745C40.7129 47.9745 40.4195 47.8532 40.2032 47.6374C39.987 47.4215 39.8655 47.1288 39.8655 46.8235V41.6299C39.8655 41.3247 39.987 41.0319 40.2032 40.816C40.4195 40.6001 40.7129 40.4789 41.0187 40.4789C41.3246 40.4789 41.618 40.6001 41.8343 40.816C42.0505 41.0319 42.172 41.3247 42.172 41.6299V46.8235C42.172 47.1288 42.0505 47.4215 41.8343 47.6374C41.618 47.8532 41.3246 47.9745 41.0187 47.9745Z" fill="#F7F8FC"/>
<path d="M38.3569 40.1385H33.1533C32.8474 40.1385 32.5541 40.0171 32.3378 39.8013C32.1215 39.5854 32 39.2927 32 38.9874C32 38.6821 32.1215 38.3893 32.3378 38.1734C32.5541 37.9576 32.8474 37.8363 33.1533 37.8363H38.3569C38.6628 37.8363 38.9562 37.9576 39.1725 38.1734C39.3888 38.3893 39.5102 38.6821 39.5102 38.9874C39.5102 39.2927 39.3888 39.5854 39.1725 39.8013C38.9562 40.0171 38.6628 40.1385 38.3569 40.1385Z" fill="#F7F8FC"/>
<path d="M18.6983 58.3966C19.6362 58.3966 20.3966 57.6362 20.3966 56.6983C20.3966 55.7604 19.6362 55 18.6983 55C17.7603 55 17 55.7604 17 56.6983C17 57.6362 17.7603 58.3966 18.6983 58.3966Z" fill="#5262EE"/>
<path d="M53 19C53.5523 19 54 18.5523 54 18C54 17.4477 53.5523 17 53 17C52.4477 17 52 17.4477 52 18C52 18.5523 52.4477 19 53 19Z" fill="white"/>
<path d="M0.999997 11C1.55228 11 2 10.5523 2 10C2 9.44772 1.55228 9 0.999997 9C0.447713 9 0 9.44772 0 10C0 10.5523 0.447713 11 0.999997 11Z" fill="white"/>
<path d="M31.6901 9.05754C34.1913 9.05754 36.2189 7.02996 36.2189 4.52879C36.2189 2.02762 34.1913 0 31.6901 0C29.189 0 27.1614 2.02762 27.1614 4.52879C27.1614 7.02996 29.189 9.05754 31.6901 9.05754Z" fill="#32AD67"/>
</svg>
