<svg width="20" height="20" viewBox="0 0 20 20" fill="none" xmlns="http://www.w3.org/2000/svg">
<g clip-path="url(#clip0_35_726)">
<path d="M8.31092 15H9.16676V10.8333H10.8334V15H11.6893C11.7993 13.9983 12.3101 13.1716 13.1393 12.2691C13.2334 12.1675 13.8326 11.5466 13.9034 11.4583C14.492 10.723 14.8609 9.83641 14.9677 8.90062C15.0745 7.96484 14.9148 7.01793 14.507 6.16893C14.0992 5.31993 13.4599 4.60338 12.6627 4.10179C11.8655 3.60021 10.9428 3.33398 10.001 3.33378C9.05913 3.33358 8.13637 3.59941 7.33897 4.10066C6.54157 4.6019 5.90197 5.31818 5.49381 6.167C5.08565 7.01583 4.92554 7.96267 5.03192 8.8985C5.13829 9.83433 5.50683 10.7211 6.09509 11.4566C6.16676 11.5458 6.76759 12.1675 6.86009 12.2683C7.69009 13.1716 8.20092 13.9983 8.31092 15ZM8.33342 16.6666V17.5H11.6668V16.6666H8.33342ZM4.79509 12.5C4.01025 11.5194 3.51838 10.337 3.37614 9.08912C3.23391 7.8412 3.44709 6.57849 3.99113 5.44643C4.53518 4.31438 5.38795 3.35904 6.45122 2.69047C7.51449 2.02189 8.74499 1.66728 10.001 1.66748C11.257 1.66768 12.4874 2.02269 13.5504 2.6916C14.6135 3.36052 15.466 4.31613 16.0096 5.44836C16.5533 6.58059 16.7661 7.84337 16.6235 9.09124C16.4808 10.3391 15.9886 11.5213 15.2034 12.5016C14.6868 13.145 13.3334 14.1666 13.3334 15.4166V17.5C13.3334 17.942 13.1578 18.3659 12.8453 18.6785C12.5327 18.9911 12.1088 19.1666 11.6668 19.1666H8.33342C7.89139 19.1666 7.46747 18.9911 7.15491 18.6785C6.84235 18.3659 6.66676 17.942 6.66676 17.5V15.4166C6.66676 14.1666 5.31259 13.145 4.79509 12.5Z" fill="#5262EE"/>
</g>
<defs>
<clipPath id="clip0_35_726">
<rect width="20" height="20" fill="white"/>
</clipPath>
</defs>
</svg>
