<svg width="24" height="24" viewBox="0 0 24 24" fill="none" xmlns="http://www.w3.org/2000/svg">
<g clip-path="url(#clip0_43_150)">
<path d="M12.0002 18.485L16.2432 14.243C17.0823 13.4038 17.6536 12.3347 17.885 11.1709C18.1165 10.007 17.9976 8.80068 17.5434 7.70438C17.0893 6.60808 16.3202 5.67107 15.3336 5.01183C14.3469 4.35259 13.1869 4.00072 12.0002 4.00072C10.8136 4.00072 9.6536 4.35259 8.66693 5.01183C7.68026 5.67107 6.91122 6.60808 6.45707 7.70438C6.00291 8.80068 5.88403 10.007 6.11546 11.1709C6.34689 12.3347 6.91823 13.4038 7.75725 14.243L12.0002 18.485ZM17.6572 15.657L12.0002 21.314L6.34325 15.657C5.22447 14.5382 4.46258 13.1127 4.15394 11.5609C3.84529 10.009 4.00374 8.40051 4.60925 6.93873C5.21476 5.47694 6.24014 4.22754 7.55573 3.3485C8.87131 2.46947 10.418 2.00029 12.0002 2.00029C13.5825 2.00029 15.1292 2.46947 16.4448 3.3485C17.7604 4.22754 18.7857 5.47694 19.3912 6.93873C19.9968 8.40051 20.1552 10.009 19.8466 11.5609C19.5379 13.1127 18.776 14.5382 17.6572 15.657ZM5.00025 22H19.0002V24H5.00025V22Z" fill="#32AD67"/>
</g>
<defs>
<clipPath id="clip0_43_150">
<rect width="24" height="24" fill="white" transform="translate(0.000244141)"/>
</clipPath>
</defs>
</svg>
