<svg width="24" height="24" viewBox="0 0 24 24" fill="none" xmlns="http://www.w3.org/2000/svg">
<g clip-path="url(#clip0_46_153)">
<path d="M20.0005 22H4.00049C3.73527 22 3.48092 21.8946 3.29338 21.7071C3.10585 21.5196 3.00049 21.2652 3.00049 21V3C3.00049 2.73478 3.10585 2.48043 3.29338 2.29289C3.48092 2.10536 3.73527 2 4.00049 2H20.0005C20.2657 2 20.5201 2.10536 20.7076 2.29289C20.8951 2.48043 21.0005 2.73478 21.0005 3V21C21.0005 21.2652 20.8951 21.5196 20.7076 21.7071C20.5201 21.8946 20.2657 22 20.0005 22ZM19.0005 20V4H5.00049V20H19.0005ZM8.00049 7H16.0005V9H8.00049V7ZM8.00049 11H16.0005V13H8.00049V11ZM8.00049 15H16.0005V17H8.00049V15Z" fill="#32AD67"/>
</g>
<defs>
<clipPath id="clip0_46_153">
<rect width="24" height="24" fill="white" transform="translate(0.000488281)"/>
</clipPath>
</defs>
</svg>
