<svg width="42" height="30" viewBox="0 0 42 30" fill="none" xmlns="http://www.w3.org/2000/svg">
<path d="M15.2059 24.3655C14.979 25.9291 14.185 27.3599 12.9698 28.395C11.7545 29.4301 10.1997 30 8.59091 30C6.98208 30 5.42727 29.4301 4.21207 28.395C2.99686 27.3599 2.20286 25.9291 1.97591 24.3655H0V1.87427C0 1.37718 0.201136 0.900453 0.55916 0.54896C0.917184 0.197467 1.40277 0 1.90909 0H28.6364C29.1427 0 29.6283 0.197467 29.9863 0.54896C30.3443 0.900453 30.5455 1.37718 30.5455 1.87427V5.6228H36.2727L42 13.2248V24.3655H38.115C37.888 25.9291 37.094 27.3599 35.8788 28.395C34.6636 29.4301 33.1088 30 31.5 30C29.8912 30 28.3364 29.4301 27.1212 28.395C25.906 27.3599 25.112 25.9291 24.885 24.3655H15.2059ZM26.7273 3.74853H3.81818V18.8364C4.57144 18.0814 5.49933 17.5163 6.52289 17.1891C7.54645 16.8619 8.63538 16.7824 9.69699 16.9572C10.7586 17.1321 11.7615 17.5561 12.6203 18.1933C13.479 18.8305 14.1683 19.662 14.6294 20.6169H25.4615C25.7823 19.9553 26.2118 19.3537 26.7273 18.8364V3.74853ZM30.5455 14.9941H38.1818V14.46L34.3484 9.37133H30.5455V14.9941ZM31.5 26.2397C32.2597 26.2397 32.9884 25.9434 33.5256 25.416C34.0628 24.8886 34.3646 24.1733 34.3646 23.4274C34.3646 22.6815 34.0628 21.9662 33.5256 21.4388C32.9884 20.9114 32.2597 20.6151 31.5 20.6151C30.7403 20.6151 30.0116 20.9114 29.4744 21.4388C28.9372 21.9662 28.6354 22.6815 28.6354 23.4274C28.6354 24.1733 28.9372 24.8886 29.4744 25.416C30.0116 25.9434 30.7403 26.2397 31.5 26.2397V26.2397ZM11.4545 23.4283C11.4545 23.0591 11.3805 22.6935 11.2366 22.3525C11.0927 22.0114 10.8817 21.7014 10.6158 21.4404C10.3499 21.1793 10.0342 20.9722 9.68678 20.8309C9.33934 20.6896 8.96697 20.6169 8.59091 20.6169C8.21485 20.6169 7.84248 20.6896 7.49504 20.8309C7.14761 20.9722 6.83193 21.1793 6.56601 21.4404C6.3001 21.7014 6.08916 22.0114 5.94525 22.3525C5.80134 22.6935 5.72727 23.0591 5.72727 23.4283C5.72727 24.174 6.02898 24.889 6.56601 25.4163C7.10305 25.9435 7.83143 26.2397 8.59091 26.2397C9.35039 26.2397 10.0788 25.9435 10.6158 25.4163C11.1528 24.889 11.4545 24.174 11.4545 23.4283V23.4283Z" fill="#F16214"/>
</svg>
