<svg width="30" height="30" viewBox="0 0 30 30" fill="none" xmlns="http://www.w3.org/2000/svg">
<path d="M1.93044 0.124435L12.9928 11.4767L8.33532 16.2579L1.92879 9.68353C0.693786 8.41579 0 6.69658 0 4.90398C0 3.11139 0.693786 1.39218 1.92879 0.124435H1.93044ZM18.4754 14.2163L17.069 15.6597L28.7144 27.6102L26.3856 30L14.7402 18.0511L3.09481 30L0.76606 27.6102L16.1467 11.8266C15.1783 9.36411 16.1796 5.81832 18.8147 3.11081C22.0311 -0.188231 26.463 -0.991019 28.7144 1.31932C30.9657 3.62966 30.1834 8.17767 26.9686 11.4767C24.3303 14.1842 20.875 15.2118 18.4754 14.2163V14.2163Z" fill="#F16214"/>
</svg>
