<svg width="220" height="80" viewBox="0 0 220 80" fill="none" xmlns="http://www.w3.org/2000/svg">
<rect width="220" height="80" rx="13" fill="white"/>
<path d="M50.5764 41.0033L30.4894 60.3458C29.5487 59.7029 28.9903 58.6337 29.0001 57.4944V24.5123C28.9903 23.373 29.5487 22.3037 30.4894 21.6609L50.5764 41.0033Z" fill="#2196F3"/>
<path d="M57.6051 34.2473L50.5764 41.0035L30.4894 21.6611C30.5651 21.6024 30.6439 21.5478 30.7255 21.4976C31.7871 20.8542 33.1131 20.8334 34.1944 21.4431L57.6051 34.2473Z" fill="#4CAF50"/>
<path d="M66.1231 41.0038C66.1362 42.2899 65.4373 43.4779 64.3069 44.0914L57.6052 47.76L50.5765 41.0038L57.6052 34.2476L64.3069 37.9162C65.4373 38.5297 66.1362 39.7177 66.1231 41.0038Z" fill="#FFC107"/>
<path d="M57.6051 47.7597L34.1944 60.5638C33.1107 61.1641 31.7897 61.1433 30.7255 60.5093C30.6439 60.4591 30.5651 60.4045 30.4894 60.3459L50.5765 41.0034L57.6051 47.7597Z" fill="#F44336"/>
<path d="M89.371 26.381C89.371 27.481 89.0447 28.3573 88.392 29.01C87.6587 29.7873 86.6943 30.176 85.499 30.176C84.355 30.176 83.387 29.78 82.595 28.988C81.803 28.196 81.407 27.2207 81.407 26.062C81.407 24.9033 81.803 23.928 82.595 23.136C83.387 22.344 84.355 21.948 85.499 21.948C86.0783 21.948 86.6247 22.0507 87.138 22.256C87.6513 22.4613 88.073 22.751 88.403 23.125L87.677 23.851C87.435 23.5577 87.1197 23.3303 86.731 23.169C86.3497 23.0003 85.939 22.916 85.499 22.916C84.641 22.916 83.915 23.213 83.321 23.807C82.7343 24.4083 82.441 25.16 82.441 26.062C82.441 26.964 82.7343 27.7157 83.321 28.317C83.915 28.911 84.641 29.208 85.499 29.208C86.2837 29.208 86.9363 28.988 87.457 28.548C87.9777 28.108 88.2783 27.503 88.359 26.733H85.499V25.787H89.316C89.3527 25.9923 89.371 26.1903 89.371 26.381ZM95.1986 22.124V23.092H91.6126V25.589H94.8466V26.535H91.6126V29.032H95.1986V30H90.6006V22.124H95.1986ZM99.2465 23.092V30H98.2345V23.092H96.0345V22.124H101.447V23.092H99.2465ZM105.932 30H104.92V22.124H105.932V30ZM108.532 30H107.52V22.124H108.752L112.58 28.251H112.624L112.58 26.733V22.124H113.592V30H112.536L108.532 23.576H108.488L108.532 25.094V30ZM125.092 26.062C125.092 27.228 124.703 28.2033 123.926 28.988C123.141 29.78 122.181 30.176 121.044 30.176C119.9 30.176 118.939 29.78 118.162 28.988C117.385 28.2033 116.996 27.228 116.996 26.062C116.996 24.896 117.385 23.9207 118.162 23.136C118.939 22.344 119.9 21.948 121.044 21.948C122.188 21.948 123.149 22.3477 123.926 23.147C124.703 23.9317 125.092 24.9033 125.092 26.062ZM118.03 26.062C118.03 26.9713 118.316 27.723 118.888 28.317C119.467 28.911 120.186 29.208 121.044 29.208C121.902 29.208 122.617 28.911 123.189 28.317C123.768 27.7303 124.058 26.9787 124.058 26.062C124.058 25.1453 123.768 24.3937 123.189 23.807C122.617 23.213 121.902 22.916 121.044 22.916C120.186 22.916 119.467 23.213 118.888 23.807C118.316 24.401 118.03 25.1527 118.03 26.062ZM127.298 30H126.286V22.124H127.518L131.346 28.251H131.39L131.346 26.733V22.124H132.358V30H131.302L127.298 23.576H127.254L127.298 25.094V30ZM89.24 46.14H96.26C96.3 46.3 96.3333 46.4933 96.36 46.72C96.3867 46.9467 96.4 47.1733 96.4 47.4C96.4 48.32 96.26 49.1867 95.98 50C95.7 50.8133 95.26 51.54 94.66 52.18C94.02 52.86 93.2533 53.3867 92.36 53.76C91.4667 54.1333 90.4467 54.32 89.3 54.32C88.26 54.32 87.28 54.1333 86.36 53.76C85.44 53.3867 84.64 52.8667 83.96 52.2C83.28 51.5333 82.74 50.7467 82.34 49.84C81.94 48.92 81.74 47.92 81.74 46.84C81.74 45.76 81.94 44.7667 82.34 43.86C82.74 42.94 83.28 42.1467 83.96 41.48C84.64 40.8133 85.44 40.2933 86.36 39.92C87.28 39.5467 88.26 39.36 89.3 39.36C90.46 39.36 91.4933 39.56 92.4 39.96C93.32 40.36 94.1067 40.9133 94.76 41.62L92.9 43.44C92.4333 42.9467 91.9133 42.5733 91.34 42.32C90.7667 42.0533 90.08 41.92 89.28 41.92C88.6267 41.92 88.0067 42.04 87.42 42.28C86.8333 42.5067 86.32 42.8333 85.88 43.26C85.44 43.6867 85.0867 44.2067 84.82 44.82C84.5667 45.42 84.44 46.0933 84.44 46.84C84.44 47.5867 84.5667 48.2667 84.82 48.88C85.0867 49.48 85.44 49.9933 85.88 50.42C86.3333 50.8467 86.8533 51.18 87.44 51.42C88.0267 51.6467 88.6533 51.76 89.32 51.76C90.08 51.76 90.72 51.6533 91.24 51.44C91.7733 51.2133 92.2267 50.9267 92.6 50.58C92.8667 50.34 93.0933 50.04 93.28 49.68C93.48 49.3067 93.6333 48.8933 93.74 48.44H89.24V46.14ZM102.854 43.88C103.614 43.88 104.307 44.0133 104.934 44.28C105.574 44.5333 106.12 44.8933 106.574 45.36C107.04 45.8133 107.4 46.36 107.654 47C107.92 47.64 108.054 48.34 108.054 49.1C108.054 49.86 107.92 50.56 107.654 51.2C107.4 51.84 107.04 52.3933 106.574 52.86C106.12 53.3133 105.574 53.6733 104.934 53.94C104.307 54.1933 103.614 54.32 102.854 54.32C102.094 54.32 101.394 54.1933 100.754 53.94C100.127 53.6733 99.5804 53.3133 99.1138 52.86C98.6604 52.3933 98.3004 51.84 98.0338 51.2C97.7804 50.56 97.6538 49.86 97.6538 49.1C97.6538 48.34 97.7804 47.64 98.0338 47C98.3004 46.36 98.6604 45.8133 99.1138 45.36C99.5804 44.8933 100.127 44.5333 100.754 44.28C101.394 44.0133 102.094 43.88 102.854 43.88ZM102.854 51.9C103.187 51.9 103.507 51.84 103.814 51.72C104.134 51.5867 104.414 51.4 104.654 51.16C104.894 50.92 105.08 50.6267 105.214 50.28C105.36 49.9333 105.434 49.54 105.434 49.1C105.434 48.66 105.36 48.2667 105.214 47.92C105.08 47.5733 104.894 47.28 104.654 47.04C104.414 46.8 104.134 46.62 103.814 46.5C103.507 46.3667 103.187 46.3 102.854 46.3C102.507 46.3 102.18 46.3667 101.874 46.5C101.567 46.62 101.294 46.8 101.054 47.04C100.814 47.28 100.62 47.5733 100.474 47.92C100.34 48.2667 100.274 48.66 100.274 49.1C100.274 49.54 100.34 49.9333 100.474 50.28C100.62 50.6267 100.814 50.92 101.054 51.16C101.294 51.4 101.567 51.5867 101.874 51.72C102.18 51.84 102.507 51.9 102.854 51.9ZM114.377 43.88C115.137 43.88 115.831 44.0133 116.457 44.28C117.097 44.5333 117.644 44.8933 118.097 45.36C118.564 45.8133 118.924 46.36 119.177 47C119.444 47.64 119.577 48.34 119.577 49.1C119.577 49.86 119.444 50.56 119.177 51.2C118.924 51.84 118.564 52.3933 118.097 52.86C117.644 53.3133 117.097 53.6733 116.457 53.94C115.831 54.1933 115.137 54.32 114.377 54.32C113.617 54.32 112.917 54.1933 112.277 53.94C111.651 53.6733 111.104 53.3133 110.637 52.86C110.184 52.3933 109.824 51.84 109.557 51.2C109.304 50.56 109.177 49.86 109.177 49.1C109.177 48.34 109.304 47.64 109.557 47C109.824 46.36 110.184 45.8133 110.637 45.36C111.104 44.8933 111.651 44.5333 112.277 44.28C112.917 44.0133 113.617 43.88 114.377 43.88ZM114.377 51.9C114.711 51.9 115.031 51.84 115.337 51.72C115.657 51.5867 115.937 51.4 116.177 51.16C116.417 50.92 116.604 50.6267 116.737 50.28C116.884 49.9333 116.957 49.54 116.957 49.1C116.957 48.66 116.884 48.2667 116.737 47.92C116.604 47.5733 116.417 47.28 116.177 47.04C115.937 46.8 115.657 46.62 115.337 46.5C115.031 46.3667 114.711 46.3 114.377 46.3C114.031 46.3 113.704 46.3667 113.397 46.5C113.091 46.62 112.817 46.8 112.577 47.04C112.337 47.28 112.144 47.5733 111.997 47.92C111.864 48.2667 111.797 48.66 111.797 49.1C111.797 49.54 111.864 49.9333 111.997 50.28C112.144 50.6267 112.337 50.92 112.577 51.16C112.817 51.4 113.091 51.5867 113.397 51.72C113.704 51.84 114.031 51.9 114.377 51.9ZM125.781 58.64C125.087 58.64 124.467 58.5467 123.921 58.36C123.387 58.1867 122.921 57.9533 122.521 57.66C122.121 57.38 121.787 57.0667 121.521 56.72C121.254 56.3733 121.061 56.0267 120.941 55.68L123.441 54.68C123.627 55.2 123.934 55.6 124.361 55.88C124.787 56.1733 125.261 56.32 125.781 56.32C126.607 56.32 127.261 56.06 127.741 55.54C128.221 55.0333 128.461 54.32 128.461 53.4V52.72H128.301C127.994 53.1467 127.587 53.4867 127.081 53.74C126.587 53.98 126.001 54.1 125.321 54.1C124.734 54.1 124.161 53.98 123.601 53.74C123.054 53.5 122.567 53.16 122.141 52.72C121.714 52.2667 121.367 51.7267 121.101 51.1C120.834 50.4733 120.701 49.7733 120.701 49C120.701 48.2267 120.834 47.5267 121.101 46.9C121.367 46.26 121.714 45.72 122.141 45.28C122.567 44.8267 123.054 44.48 123.601 44.24C124.161 44 124.734 43.88 125.321 43.88C126.001 43.88 126.587 44.0067 127.081 44.26C127.587 44.5 127.994 44.8333 128.301 45.26H128.461V44.2H130.961V53.3C130.961 54.1267 130.834 54.8667 130.581 55.52C130.327 56.1867 129.974 56.7467 129.521 57.2C129.067 57.6667 128.521 58.02 127.881 58.26C127.254 58.5133 126.554 58.64 125.781 58.64ZM125.881 51.74C126.201 51.74 126.514 51.68 126.821 51.56C127.141 51.44 127.421 51.2667 127.661 51.04C127.901 50.8 128.094 50.5133 128.241 50.18C128.387 49.8333 128.461 49.44 128.461 49C128.461 48.56 128.387 48.1667 128.241 47.82C128.094 47.4733 127.901 47.1867 127.661 46.96C127.421 46.72 127.141 46.54 126.821 46.42C126.514 46.3 126.201 46.24 125.881 46.24C125.561 46.24 125.247 46.3 124.941 46.42C124.634 46.54 124.361 46.72 124.121 46.96C123.881 47.2 123.687 47.4933 123.541 47.84C123.394 48.1733 123.321 48.56 123.321 49C123.321 49.44 123.394 49.8333 123.541 50.18C123.687 50.5133 123.881 50.8 124.121 51.04C124.361 51.2667 124.634 51.44 124.941 51.56C125.247 51.68 125.561 51.74 125.881 51.74ZM133.194 54V39.68H135.814V54H133.194ZM147.24 51.64C146.787 52.44 146.173 53.0867 145.4 53.58C144.64 54.0733 143.707 54.32 142.6 54.32C141.853 54.32 141.16 54.1933 140.52 53.94C139.893 53.6733 139.347 53.3067 138.88 52.84C138.413 52.3733 138.047 51.8267 137.78 51.2C137.527 50.56 137.4 49.86 137.4 49.1C137.4 48.3933 137.527 47.7267 137.78 47.1C138.033 46.46 138.387 45.9067 138.84 45.44C139.293 44.96 139.827 44.58 140.44 44.3C141.067 44.02 141.753 43.88 142.5 43.88C143.287 43.88 143.987 44.0133 144.6 44.28C145.213 44.5333 145.727 44.8933 146.14 45.36C146.553 45.8133 146.867 46.3533 147.08 46.98C147.293 47.6067 147.4 48.2867 147.4 49.02C147.4 49.1133 147.4 49.1933 147.4 49.26C147.387 49.34 147.38 49.4133 147.38 49.48C147.367 49.5467 147.36 49.62 147.36 49.7H139.98C140.033 50.1 140.14 50.4467 140.3 50.74C140.473 51.02 140.68 51.26 140.92 51.46C141.173 51.6467 141.447 51.7867 141.74 51.88C142.033 51.96 142.333 52 142.64 52C143.24 52 143.733 51.8667 144.12 51.6C144.52 51.32 144.833 50.9733 145.06 50.56L147.24 51.64ZM144.86 47.84C144.847 47.6667 144.787 47.4733 144.68 47.26C144.587 47.0467 144.44 46.8467 144.24 46.66C144.053 46.4733 143.813 46.32 143.52 46.2C143.24 46.08 142.9 46.02 142.5 46.02C141.94 46.02 141.447 46.18 141.02 46.5C140.593 46.82 140.293 47.2667 140.12 47.84H144.86ZM153.788 54V39.68H158.828C159.508 39.68 160.141 39.7933 160.728 40.02C161.328 40.2333 161.848 40.54 162.288 40.94C162.728 41.34 163.074 41.82 163.328 42.38C163.581 42.9267 163.708 43.5333 163.708 44.2C163.708 44.88 163.581 45.5 163.328 46.06C163.074 46.6067 162.728 47.08 162.288 47.48C161.848 47.88 161.328 48.1933 160.728 48.42C160.141 48.6333 159.508 48.74 158.828 48.74H156.488V54H153.788ZM158.868 46.18C159.574 46.18 160.108 45.98 160.468 45.58C160.828 45.18 161.008 44.72 161.008 44.2C161.008 43.9467 160.961 43.7 160.868 43.46C160.788 43.22 160.654 43.0133 160.468 42.84C160.294 42.6533 160.074 42.5067 159.808 42.4C159.541 42.2933 159.228 42.24 158.868 42.24H156.488V46.18H158.868ZM165.401 54V39.68H168.021V54H165.401ZM176.207 52.96H176.047C175.74 53.3333 175.367 53.6533 174.927 53.92C174.5 54.1867 173.947 54.32 173.267 54.32C172.76 54.32 172.28 54.2333 171.827 54.06C171.387 53.9 171 53.6733 170.667 53.38C170.334 53.0867 170.074 52.7333 169.887 52.32C169.7 51.9067 169.607 51.4533 169.607 50.96C169.607 50.4533 169.707 50 169.907 49.6C170.107 49.1867 170.387 48.8333 170.747 48.54C171.107 48.2467 171.527 48.0267 172.007 47.88C172.5 47.72 173.034 47.64 173.607 47.64C174.247 47.64 174.774 47.6933 175.187 47.8C175.6 47.8933 175.94 47.9933 176.207 48.1V47.8C176.207 47.28 176 46.8533 175.587 46.52C175.174 46.1733 174.66 46 174.047 46C173.14 46 172.374 46.38 171.747 47.14L169.847 45.84C170.887 44.5333 172.307 43.88 174.107 43.88C175.627 43.88 176.787 44.24 177.587 44.96C178.387 45.6667 178.787 46.72 178.787 48.12V54H176.207V52.96ZM176.207 50.02C175.9 49.8733 175.58 49.76 175.247 49.68C174.927 49.5867 174.574 49.54 174.187 49.54C173.56 49.54 173.074 49.68 172.727 49.96C172.394 50.2267 172.227 50.56 172.227 50.96C172.227 51.36 172.387 51.68 172.707 51.92C173.04 52.16 173.42 52.28 173.847 52.28C174.194 52.28 174.514 52.22 174.807 52.1C175.1 51.9667 175.347 51.8 175.547 51.6C175.76 51.3867 175.92 51.1467 176.027 50.88C176.147 50.6 176.207 50.3133 176.207 50.02ZM183.755 53.52L179.635 44.2H182.615L185.095 50.14H185.235L187.615 44.2H190.535L184.395 58.32H181.575L183.755 53.52Z" fill="black"/>
</svg>
