<svg width="220" height="80" viewBox="0 0 220 80" fill="none" xmlns="http://www.w3.org/2000/svg">
<rect width="220" height="80" rx="13" fill="white"/>
<path d="M61.2963 47.7899C61.1641 47.5856 60.9492 47.4491 60.7079 47.4166C57.5344 47.002 55.2978 44.0934 55.7123 40.9199C56.0052 38.6782 57.5748 36.8115 59.733 36.1383C60.1713 35.9978 60.4128 35.5287 60.2723 35.0904C60.2504 35.0222 60.2199 34.9571 60.1814 34.8966C58.7251 32.2683 56.1356 30.4608 53.1664 30C51.6702 30.0714 50.1957 30.3873 48.8015 30.935C47.8001 31.338 46.7428 31.5848 45.6665 31.6666C44.5902 31.5848 43.5328 31.338 42.5315 30.935C41.1373 30.3873 39.6628 30.0714 38.1666 30C35.0549 30 29 34.4116 29 42.4999C29 50.1865 34.6066 59.9997 38.9999 59.9997C40.6762 60.0147 42.3324 59.6333 43.8332 58.8864C44.3985 58.5747 45.0232 58.3861 45.6666 58.333C46.3099 58.3861 46.9347 58.5747 47.4999 58.8864C49.0008 59.6333 50.6569 60.0147 52.3332 59.9997C55.8166 59.9997 59.7482 54.0198 61.3948 48.4782C61.4637 48.2455 61.4278 47.9941 61.2963 47.7899Z" fill="#37474F"/>
<path d="M44.8331 29.9999C49.8933 29.9944 53.9942 25.8936 53.9996 20.8334C53.9996 20.3731 53.6266 20 53.1663 20C48.1061 20.0055 44.0053 24.1063 43.9998 29.1666C43.9997 29.6268 44.3728 29.9999 44.8331 29.9999Z" fill="#37474F"/>
<path d="M81.792 30V22.124H84.201C85.4037 22.124 86.368 22.487 87.094 23.213C87.8273 23.939 88.194 24.8887 88.194 26.062C88.194 27.2427 87.8273 28.196 87.094 28.922C86.368 29.6407 85.4037 30 84.201 30H81.792ZM82.804 23.092V29.032H84.201C85.1177 29.032 85.84 28.7717 86.368 28.251C86.896 27.723 87.16 26.9933 87.16 26.062C87.16 25.138 86.896 24.412 86.368 23.884C85.84 23.356 85.1177 23.092 84.201 23.092H82.804ZM88.7523 27.305C88.7523 26.4763 89.0127 25.7907 89.5333 25.248C90.0613 24.7053 90.725 24.434 91.5243 24.434C92.3237 24.434 92.9837 24.7053 93.5043 25.248C94.0323 25.7907 94.2963 26.4763 94.2963 27.305C94.2963 28.141 94.0323 28.8267 93.5043 29.362C92.9837 29.9047 92.3237 30.176 91.5243 30.176C90.725 30.176 90.0613 29.9047 89.5333 29.362C89.0127 28.8193 88.7523 28.1337 88.7523 27.305ZM89.7643 27.305C89.7643 27.8843 89.933 28.3537 90.2703 28.713C90.6077 29.0723 91.0257 29.252 91.5243 29.252C92.023 29.252 92.441 29.0723 92.7783 28.713C93.1157 28.3537 93.2843 27.8843 93.2843 27.305C93.2843 26.733 93.1157 26.2673 92.7783 25.908C92.4337 25.5413 92.0157 25.358 91.5243 25.358C91.033 25.358 90.615 25.5413 90.2703 25.908C89.933 26.2673 89.7643 26.733 89.7643 27.305ZM102.742 24.61L101.004 30H99.9702L98.6282 25.864L97.2972 30H96.2742L94.5362 24.61H95.5922L96.7912 28.68H96.8022L98.1332 24.61H99.1782L100.509 28.68H100.52L101.708 24.61H102.742ZM103.401 24.61H104.369V25.358H104.413C104.567 25.094 104.802 24.874 105.117 24.698C105.44 24.522 105.773 24.434 106.118 24.434C106.778 24.434 107.284 24.6247 107.636 25.006C107.995 25.38 108.175 25.9153 108.175 26.612V30H107.163V26.678C107.141 25.798 106.697 25.358 105.832 25.358C105.429 25.358 105.091 25.523 104.82 25.853C104.549 26.1757 104.413 26.5643 104.413 27.019V30H103.401V24.61ZM110.375 22.124V30H109.363V22.124H110.375ZM111.246 27.305C111.246 26.4763 111.507 25.7907 112.027 25.248C112.555 24.7053 113.219 24.434 114.018 24.434C114.818 24.434 115.478 24.7053 115.998 25.248C116.526 25.7907 116.79 26.4763 116.79 27.305C116.79 28.141 116.526 28.8267 115.998 29.362C115.478 29.9047 114.818 30.176 114.018 30.176C113.219 30.176 112.555 29.9047 112.027 29.362C111.507 28.8193 111.246 28.1337 111.246 27.305ZM112.258 27.305C112.258 27.8843 112.427 28.3537 112.764 28.713C113.102 29.0723 113.52 29.252 114.018 29.252C114.517 29.252 114.935 29.0723 115.272 28.713C115.61 28.3537 115.778 27.8843 115.778 27.305C115.778 26.733 115.61 26.2673 115.272 25.908C114.928 25.5413 114.51 25.358 114.018 25.358C113.527 25.358 113.109 25.5413 112.764 25.908C112.427 26.2673 112.258 26.733 112.258 27.305ZM118.447 28.35C118.447 28.614 118.557 28.834 118.777 29.01C119.004 29.186 119.268 29.274 119.569 29.274C119.994 29.274 120.372 29.1163 120.702 28.801C121.039 28.4857 121.208 28.1153 121.208 27.69C120.892 27.4407 120.452 27.316 119.888 27.316C119.477 27.316 119.132 27.415 118.854 27.613C118.582 27.811 118.447 28.0567 118.447 28.35ZM119.756 24.434C120.504 24.434 121.094 24.6357 121.527 25.039C121.959 25.435 122.176 25.9813 122.176 26.678V30H121.208V29.252H121.164C120.746 29.868 120.188 30.176 119.492 30.176C118.898 30.176 118.399 30 117.996 29.648C117.6 29.296 117.402 28.856 117.402 28.328C117.402 27.7707 117.611 27.327 118.029 26.997C118.454 26.667 119.019 26.502 119.723 26.502C120.324 26.502 120.819 26.612 121.208 26.832V26.601C121.208 26.249 121.068 25.952 120.79 25.71C120.511 25.4607 120.185 25.336 119.811 25.336C119.246 25.336 118.799 25.5743 118.469 26.051L117.578 25.49C118.069 24.786 118.795 24.434 119.756 24.434ZM125.683 29.252C126.182 29.252 126.589 29.0723 126.904 28.713C127.234 28.3537 127.399 27.8843 127.399 27.305C127.399 26.7403 127.234 26.2747 126.904 25.908C126.582 25.5413 126.175 25.358 125.683 25.358C125.199 25.358 124.792 25.5413 124.462 25.908C124.132 26.2747 123.967 26.7403 123.967 27.305C123.967 27.877 124.132 28.3427 124.462 28.702C124.792 29.0687 125.199 29.252 125.683 29.252ZM125.518 30.176C124.814 30.176 124.209 29.8973 123.703 29.34C123.205 28.7753 122.955 28.097 122.955 27.305C122.955 26.513 123.205 25.8347 123.703 25.27C124.209 24.7127 124.814 24.434 125.518 24.434C125.914 24.434 126.274 24.5183 126.596 24.687C126.926 24.8557 127.179 25.0793 127.355 25.358H127.399L127.355 24.61V22.124H128.367V30H127.399V29.252H127.355C127.179 29.5307 126.926 29.7543 126.596 29.923C126.274 30.0917 125.914 30.176 125.518 30.176ZM131.71 27.305C131.71 26.4763 131.971 25.7907 132.491 25.248C133.019 24.7053 133.683 24.434 134.482 24.434C135.282 24.434 135.942 24.7053 136.462 25.248C136.99 25.7907 137.254 26.4763 137.254 27.305C137.254 28.141 136.99 28.8267 136.462 29.362C135.942 29.9047 135.282 30.176 134.482 30.176C133.683 30.176 133.019 29.9047 132.491 29.362C131.971 28.8193 131.71 28.1337 131.71 27.305ZM132.722 27.305C132.722 27.8843 132.891 28.3537 133.228 28.713C133.566 29.0723 133.984 29.252 134.482 29.252C134.981 29.252 135.399 29.0723 135.736 28.713C136.074 28.3537 136.242 27.8843 136.242 27.305C136.242 26.733 136.074 26.2673 135.736 25.908C135.392 25.5413 134.974 25.358 134.482 25.358C133.991 25.358 133.573 25.5413 133.228 25.908C132.891 26.2673 132.722 26.733 132.722 27.305ZM138.066 24.61H139.034V25.358H139.078C139.232 25.094 139.467 24.874 139.782 24.698C140.105 24.522 140.439 24.434 140.783 24.434C141.443 24.434 141.949 24.6247 142.301 25.006C142.661 25.38 142.84 25.9153 142.84 26.612V30H141.828V26.678C141.806 25.798 141.363 25.358 140.497 25.358C140.094 25.358 139.757 25.523 139.485 25.853C139.214 26.1757 139.078 26.5643 139.078 27.019V30H138.066V24.61ZM148.579 30.088C148.139 30.088 147.772 29.9523 147.479 29.681C147.193 29.4097 147.046 29.032 147.039 28.548V25.534H146.093V24.61H147.039V22.96H148.051V24.61H149.371V25.534H148.051V28.218C148.051 28.5773 148.121 28.823 148.26 28.955C148.399 29.0797 148.557 29.142 148.733 29.142C148.814 29.142 148.891 29.1347 148.964 29.12C149.045 29.098 149.118 29.0723 149.184 29.043L149.503 29.945C149.239 30.0403 148.931 30.088 148.579 30.088ZM150.387 22.124H151.399V24.61L151.355 25.358H151.399C151.553 25.094 151.788 24.874 152.103 24.698C152.426 24.522 152.76 24.434 153.104 24.434C153.764 24.434 154.27 24.6247 154.622 25.006C154.982 25.38 155.161 25.9153 155.161 26.612V30H154.149V26.81C154.149 25.842 153.72 25.358 152.862 25.358C152.452 25.358 152.103 25.5303 151.817 25.875C151.539 26.2123 151.399 26.6083 151.399 27.063V30H150.387V22.124ZM158.769 30.176C157.977 30.176 157.325 29.9047 156.811 29.362C156.298 28.8193 156.041 28.1337 156.041 27.305C156.041 26.4837 156.291 25.8017 156.789 25.259C157.288 24.709 157.926 24.434 158.703 24.434C159.503 24.434 160.137 24.6943 160.606 25.215C161.083 25.7283 161.321 26.4507 161.321 27.382L161.31 27.492H157.075C157.09 28.02 157.266 28.4453 157.603 28.768C157.941 29.0907 158.344 29.252 158.813 29.252C159.459 29.252 159.965 28.9293 160.331 28.284L161.233 28.724C160.991 29.1787 160.654 29.5343 160.221 29.791C159.796 30.0477 159.312 30.176 158.769 30.176ZM157.152 26.656H160.243C160.214 26.282 160.06 25.974 159.781 25.732C159.51 25.4827 159.143 25.358 158.681 25.358C158.3 25.358 157.97 25.4753 157.691 25.71C157.42 25.9447 157.24 26.26 157.152 26.656ZM86.62 39.68H89.7L95.08 54H92.1L90.92 50.58H85.4L84.22 54H81.24L86.62 39.68ZM90.04 48.1L88.76 44.52L88.24 42.78H88.08L87.56 44.52L86.28 48.1H90.04ZM96.4541 44.2H98.9141V45.38H99.0741C99.3141 44.9667 99.6874 44.6133 100.194 44.32C100.701 44.0267 101.327 43.88 102.074 43.88C102.701 43.88 103.294 44.0133 103.854 44.28C104.427 44.5333 104.927 44.8933 105.354 45.36C105.794 45.8133 106.141 46.36 106.394 47C106.647 47.64 106.774 48.34 106.774 49.1C106.774 49.86 106.647 50.56 106.394 51.2C106.141 51.84 105.794 52.3933 105.354 52.86C104.927 53.3133 104.427 53.6733 103.854 53.94C103.294 54.1933 102.701 54.32 102.074 54.32C101.327 54.32 100.701 54.1733 100.194 53.88C99.6874 53.5867 99.3141 53.2333 99.0741 52.82H98.9141L99.0741 54.22V58.32H96.4541V44.2ZM101.534 51.9C101.881 51.9 102.207 51.8333 102.514 51.7C102.834 51.5667 103.114 51.38 103.354 51.14C103.594 50.9 103.787 50.6067 103.934 50.26C104.081 49.9133 104.154 49.5267 104.154 49.1C104.154 48.6733 104.081 48.2867 103.934 47.94C103.787 47.5933 103.594 47.3 103.354 47.06C103.114 46.82 102.834 46.6333 102.514 46.5C102.207 46.3667 101.881 46.3 101.534 46.3C101.187 46.3 100.854 46.3667 100.534 46.5C100.227 46.62 99.9541 46.8 99.7141 47.04C99.4741 47.28 99.2807 47.5733 99.1341 47.92C98.9874 48.2667 98.9141 48.66 98.9141 49.1C98.9141 49.54 98.9874 49.9333 99.1341 50.28C99.2807 50.6267 99.4741 50.92 99.7141 51.16C99.9541 51.4 100.227 51.5867 100.534 51.72C100.854 51.84 101.187 51.9 101.534 51.9ZM108.173 44.2H110.633V45.38H110.793C111.033 44.9667 111.406 44.6133 111.913 44.32C112.419 44.0267 113.046 43.88 113.793 43.88C114.419 43.88 115.013 44.0133 115.573 44.28C116.146 44.5333 116.646 44.8933 117.073 45.36C117.513 45.8133 117.859 46.36 118.113 47C118.366 47.64 118.493 48.34 118.493 49.1C118.493 49.86 118.366 50.56 118.113 51.2C117.859 51.84 117.513 52.3933 117.073 52.86C116.646 53.3133 116.146 53.6733 115.573 53.94C115.013 54.1933 114.419 54.32 113.793 54.32C113.046 54.32 112.419 54.1733 111.913 53.88C111.406 53.5867 111.033 53.2333 110.793 52.82H110.633L110.793 54.22V58.32H108.173V44.2ZM113.253 51.9C113.599 51.9 113.926 51.8333 114.233 51.7C114.553 51.5667 114.833 51.38 115.073 51.14C115.313 50.9 115.506 50.6067 115.653 50.26C115.799 49.9133 115.873 49.5267 115.873 49.1C115.873 48.6733 115.799 48.2867 115.653 47.94C115.506 47.5933 115.313 47.3 115.073 47.06C114.833 46.82 114.553 46.6333 114.233 46.5C113.926 46.3667 113.599 46.3 113.253 46.3C112.906 46.3 112.573 46.3667 112.253 46.5C111.946 46.62 111.673 46.8 111.433 47.04C111.193 47.28 110.999 47.5733 110.853 47.92C110.706 48.2667 110.633 48.66 110.633 49.1C110.633 49.54 110.706 49.9333 110.853 50.28C110.999 50.6267 111.193 50.92 111.433 51.16C111.673 51.4 111.946 51.5867 112.253 51.72C112.573 51.84 112.906 51.9 113.253 51.9ZM119.972 54V39.68H122.592V54H119.972ZM134.017 51.64C133.564 52.44 132.951 53.0867 132.177 53.58C131.417 54.0733 130.484 54.32 129.377 54.32C128.631 54.32 127.937 54.1933 127.297 53.94C126.671 53.6733 126.124 53.3067 125.657 52.84C125.191 52.3733 124.824 51.8267 124.557 51.2C124.304 50.56 124.177 49.86 124.177 49.1C124.177 48.3933 124.304 47.7267 124.557 47.1C124.811 46.46 125.164 45.9067 125.617 45.44C126.071 44.96 126.604 44.58 127.217 44.3C127.844 44.02 128.531 43.88 129.277 43.88C130.064 43.88 130.764 44.0133 131.377 44.28C131.991 44.5333 132.504 44.8933 132.917 45.36C133.331 45.8133 133.644 46.3533 133.857 46.98C134.071 47.6067 134.177 48.2867 134.177 49.02C134.177 49.1133 134.177 49.1933 134.177 49.26C134.164 49.34 134.157 49.4133 134.157 49.48C134.144 49.5467 134.137 49.62 134.137 49.7H126.757C126.811 50.1 126.917 50.4467 127.077 50.74C127.251 51.02 127.457 51.26 127.697 51.46C127.951 51.6467 128.224 51.7867 128.517 51.88C128.811 51.96 129.111 52 129.417 52C130.017 52 130.511 51.8667 130.897 51.6C131.297 51.32 131.611 50.9733 131.837 50.56L134.017 51.64ZM131.637 47.84C131.624 47.6667 131.564 47.4733 131.457 47.26C131.364 47.0467 131.217 46.8467 131.017 46.66C130.831 46.4733 130.591 46.32 130.297 46.2C130.017 46.08 129.677 46.02 129.277 46.02C128.717 46.02 128.224 46.18 127.797 46.5C127.371 46.82 127.071 47.2667 126.897 47.84H131.637ZM144.34 54.32C143.726 54.32 143.14 54.2333 142.58 54.06C142.02 53.8867 141.506 53.6267 141.04 53.28C140.573 52.9333 140.166 52.5133 139.82 52.02C139.473 51.5133 139.2 50.9267 139 50.26L141.54 49.26C141.726 49.98 142.053 50.58 142.52 51.06C142.986 51.5267 143.6 51.76 144.36 51.76C144.64 51.76 144.906 51.7267 145.16 51.66C145.426 51.58 145.66 51.4733 145.86 51.34C146.073 51.1933 146.24 51.0133 146.36 50.8C146.48 50.5867 146.54 50.34 146.54 50.06C146.54 49.7933 146.493 49.5533 146.4 49.34C146.306 49.1267 146.146 48.9267 145.92 48.74C145.706 48.5533 145.42 48.3733 145.06 48.2C144.713 48.0267 144.28 47.8467 143.76 47.66L142.88 47.34C142.493 47.2067 142.1 47.0267 141.7 46.8C141.313 46.5733 140.96 46.3 140.64 45.98C140.32 45.66 140.053 45.2867 139.84 44.86C139.64 44.42 139.54 43.9267 139.54 43.38C139.54 42.82 139.646 42.3 139.86 41.82C140.086 41.3267 140.4 40.9 140.8 40.54C141.213 40.1667 141.7 39.88 142.26 39.68C142.833 39.4667 143.466 39.36 144.16 39.36C144.88 39.36 145.5 39.46 146.02 39.66C146.553 39.8467 147 40.0933 147.36 40.4C147.733 40.6933 148.033 41.02 148.26 41.38C148.486 41.74 148.653 42.08 148.76 42.4L146.38 43.4C146.246 43 146 42.64 145.64 42.32C145.293 42 144.813 41.84 144.2 41.84C143.613 41.84 143.126 41.98 142.74 42.26C142.353 42.5267 142.16 42.88 142.16 43.32C142.16 43.7467 142.346 44.1133 142.72 44.42C143.093 44.7133 143.686 45 144.5 45.28L145.4 45.58C145.973 45.78 146.493 46.0133 146.96 46.28C147.44 46.5333 147.846 46.84 148.18 47.2C148.526 47.56 148.786 47.9733 148.96 48.44C149.146 48.8933 149.24 49.42 149.24 50.02C149.24 50.7667 149.086 51.4133 148.78 51.96C148.486 52.4933 148.106 52.9333 147.64 53.28C147.173 53.6267 146.646 53.8867 146.06 54.06C145.473 54.2333 144.9 54.32 144.34 54.32ZM151.716 46.44H149.996V44.2H151.716V41.2H154.336V44.2H156.736V46.44H154.336V50.24C154.336 50.4667 154.356 50.68 154.396 50.88C154.449 51.0667 154.542 51.2267 154.676 51.36C154.862 51.5733 155.129 51.68 155.476 51.68C155.702 51.68 155.882 51.66 156.016 51.62C156.149 51.5667 156.276 51.5 156.396 51.42L157.136 53.72C156.829 53.8667 156.496 53.9733 156.136 54.04C155.789 54.12 155.402 54.16 154.976 54.16C154.482 54.16 154.036 54.0867 153.636 53.94C153.249 53.78 152.922 53.5667 152.656 53.3C152.029 52.7 151.716 51.8467 151.716 50.74V46.44ZM163.205 43.88C163.965 43.88 164.659 44.0133 165.285 44.28C165.925 44.5333 166.472 44.8933 166.925 45.36C167.392 45.8133 167.752 46.36 168.005 47C168.272 47.64 168.405 48.34 168.405 49.1C168.405 49.86 168.272 50.56 168.005 51.2C167.752 51.84 167.392 52.3933 166.925 52.86C166.472 53.3133 165.925 53.6733 165.285 53.94C164.659 54.1933 163.965 54.32 163.205 54.32C162.445 54.32 161.745 54.1933 161.105 53.94C160.479 53.6733 159.932 53.3133 159.465 52.86C159.012 52.3933 158.652 51.84 158.385 51.2C158.132 50.56 158.005 49.86 158.005 49.1C158.005 48.34 158.132 47.64 158.385 47C158.652 46.36 159.012 45.8133 159.465 45.36C159.932 44.8933 160.479 44.5333 161.105 44.28C161.745 44.0133 162.445 43.88 163.205 43.88ZM163.205 51.9C163.539 51.9 163.859 51.84 164.165 51.72C164.485 51.5867 164.765 51.4 165.005 51.16C165.245 50.92 165.432 50.6267 165.565 50.28C165.712 49.9333 165.785 49.54 165.785 49.1C165.785 48.66 165.712 48.2667 165.565 47.92C165.432 47.5733 165.245 47.28 165.005 47.04C164.765 46.8 164.485 46.62 164.165 46.5C163.859 46.3667 163.539 46.3 163.205 46.3C162.859 46.3 162.532 46.3667 162.225 46.5C161.919 46.62 161.645 46.8 161.405 47.04C161.165 47.28 160.972 47.5733 160.825 47.92C160.692 48.2667 160.625 48.66 160.625 49.1C160.625 49.54 160.692 49.9333 160.825 50.28C160.972 50.6267 161.165 50.92 161.405 51.16C161.645 51.4 161.919 51.5867 162.225 51.72C162.532 51.84 162.859 51.9 163.205 51.9ZM169.893 44.2H172.353V45.56H172.513C172.633 45.32 172.793 45.1 172.993 44.9C173.193 44.7 173.413 44.5267 173.653 44.38C173.907 44.2333 174.173 44.12 174.453 44.04C174.747 43.96 175.033 43.92 175.313 43.92C175.66 43.92 175.953 43.9533 176.193 44.02C176.447 44.0867 176.66 44.1733 176.833 44.28L176.133 46.66C175.973 46.58 175.793 46.52 175.593 46.48C175.407 46.4267 175.173 46.4 174.893 46.4C174.533 46.4 174.207 46.4733 173.913 46.62C173.62 46.7533 173.367 46.9467 173.153 47.2C172.953 47.4533 172.793 47.7533 172.673 48.1C172.567 48.4333 172.513 48.8 172.513 49.2V54H169.893V44.2ZM186.713 51.64C186.259 52.44 185.646 53.0867 184.873 53.58C184.113 54.0733 183.179 54.32 182.073 54.32C181.326 54.32 180.633 54.1933 179.993 53.94C179.366 53.6733 178.819 53.3067 178.353 52.84C177.886 52.3733 177.519 51.8267 177.253 51.2C176.999 50.56 176.873 49.86 176.873 49.1C176.873 48.3933 176.999 47.7267 177.253 47.1C177.506 46.46 177.859 45.9067 178.313 45.44C178.766 44.96 179.299 44.58 179.913 44.3C180.539 44.02 181.226 43.88 181.973 43.88C182.759 43.88 183.459 44.0133 184.073 44.28C184.686 44.5333 185.199 44.8933 185.613 45.36C186.026 45.8133 186.339 46.3533 186.553 46.98C186.766 47.6067 186.872 48.2867 186.872 49.02C186.872 49.1133 186.872 49.1933 186.872 49.26C186.859 49.34 186.853 49.4133 186.853 49.48C186.839 49.5467 186.833 49.62 186.833 49.7H179.453C179.506 50.1 179.613 50.4467 179.773 50.74C179.946 51.02 180.153 51.26 180.393 51.46C180.646 51.6467 180.919 51.7867 181.213 51.88C181.506 51.96 181.806 52 182.113 52C182.713 52 183.206 51.8667 183.593 51.6C183.993 51.32 184.306 50.9733 184.533 50.56L186.713 51.64ZM184.333 47.84C184.319 47.6667 184.259 47.4733 184.153 47.26C184.059 47.0467 183.913 46.8467 183.713 46.66C183.526 46.4733 183.286 46.32 182.993 46.2C182.713 46.08 182.373 46.02 181.973 46.02C181.413 46.02 180.919 46.18 180.493 46.5C180.066 46.82 179.766 47.2667 179.593 47.84H184.333Z" fill="black"/>
</svg>
