<svg width="22" height="10" viewBox="0 0 22 10" fill="none" xmlns="http://www.w3.org/2000/svg">
<path d="M4.87806 1.56427e-05C5.00682 -0.000744049 5.13446 0.0244407 5.25367 0.0741267C5.37287 0.123813 5.48129 0.197024 5.57271 0.289559C5.66442 0.382375 5.7372 0.4928 5.78688 0.614467C5.83655 0.736134 5.86212 0.866633 5.86212 0.998437C5.86212 1.13024 5.83655 1.26074 5.78688 1.38241C5.7372 1.50407 5.66442 1.6145 5.57271 1.70732L2.33423 4.99212L5.44552 8.2969C5.62775 8.48396 5.73003 8.73701 5.73003 9.00078C5.73003 9.26455 5.62775 9.5176 5.44552 9.70467C5.35457 9.79825 5.24636 9.87253 5.12713 9.92321C5.00791 9.9739 4.88002 10 4.75086 10C4.62171 10 4.49382 9.9739 4.3746 9.92321C4.25537 9.87253 4.14716 9.79825 4.05621 9.70467L0.27961 5.71098C0.100342 5.52435 -7.07822e-05 5.27343 -7.07822e-05 5.01209C-7.07822e-05 4.75075 0.100342 4.49983 0.27961 4.31319L4.19318 0.31951C4.281 0.222731 4.38674 0.144668 4.50429 0.0898299C4.62184 0.0349918 4.74888 0.00446586 4.87806 1.56427e-05V1.56427e-05Z" fill="white"/>
<line x1="2.45367" y1="4.99072" x2="20.9999" y2="4.99072" stroke="white" stroke-width="2" stroke-linecap="round"/>
</svg>
