<svg width="22" height="10" viewBox="0 0 22 10" fill="none" xmlns="http://www.w3.org/2000/svg">
<path d="M17.1219 9.99998C16.9931 10.0007 16.8655 9.97556 16.7463 9.92587C16.6271 9.87619 16.5186 9.80298 16.4272 9.71044C16.3355 9.61762 16.2627 9.5072 16.2131 9.38553C16.1634 9.26387 16.1378 9.13337 16.1378 9.00156C16.1378 8.86976 16.1634 8.73926 16.2131 8.61759C16.2627 8.49593 16.3355 8.3855 16.4272 8.29268L19.6657 5.00788L16.5544 1.7031C16.3722 1.51604 16.2699 1.26299 16.2699 0.999218C16.2699 0.735449 16.3722 0.482398 16.5544 0.295331C16.6454 0.201751 16.7536 0.127474 16.8728 0.0767852C16.992 0.0260967 17.1199 0 17.2491 0C17.3782 0 17.5061 0.0260967 17.6253 0.0767852C17.7446 0.127474 17.8528 0.201751 17.9437 0.295331L21.7203 4.28901C21.8996 4.47565 22 4.72657 22 4.98791C22 5.24925 21.8996 5.50017 21.7203 5.6868L17.8068 9.68049C17.7189 9.77727 17.6132 9.85533 17.4956 9.91017C17.3781 9.96501 17.2511 9.99553 17.1219 9.99998V9.99998Z" fill="#F16214"/>
<line x1="19.5462" y1="5.00928" x2="0.999987" y2="5.00928" stroke="#F16214" stroke-width="2" stroke-linecap="round"/>
</svg>
