<svg width="14" height="13" viewBox="0 0 14 13" fill="none" xmlns="http://www.w3.org/2000/svg">
<path d="M2.93809 1.44509C2.9379 1.82816 2.78293 2.19546 2.5073 2.46619C2.23166 2.73693 1.85793 2.88892 1.46831 2.88873C1.0787 2.88854 0.705116 2.73618 0.429754 2.46517C0.154392 2.19417 -0.000194624 1.82671 1.83896e-07 1.44364C0.000194991 1.06057 0.155156 0.693269 0.430793 0.422534C0.70643 0.151798 1.08016 -0.000191354 1.46978 1.80807e-07C1.85939 0.000191715 2.23297 0.152549 2.50834 0.423555C2.7837 0.694562 2.93829 1.06202 2.93809 1.44509V1.44509ZM2.98216 3.95828H0.0440715V13H2.98216V3.95828ZM7.62434 3.95828H4.70094V13H7.59496V8.25526C7.59496 5.61208 11.0986 5.36654 11.0986 8.25526V13H14V7.2731C14 2.81723 8.81427 2.98333 7.59496 5.17155L7.62434 3.95828V3.95828Z" fill="#F16214"/>
</svg>
