<svg width="30" height="30" viewBox="0 0 30 30" fill="none" xmlns="http://www.w3.org/2000/svg">
<path d="M15.0002 29.1663C7.17591 29.1663 0.833496 22.8239 0.833496 14.9997C0.833496 7.17543 7.17591 0.833008 15.0002 0.833008C22.8244 0.833008 29.1668 7.17543 29.1668 14.9997C29.1668 22.8239 22.8244 29.1663 15.0002 29.1663ZM15.0002 26.333C18.006 26.333 20.8886 25.139 23.014 23.0136C25.1395 20.8881 26.3335 18.0055 26.3335 14.9997C26.3335 11.9939 25.1395 9.11121 23.014 6.9858C20.8886 4.86039 18.006 3.66634 15.0002 3.66634C11.9944 3.66634 9.1117 4.86039 6.98629 6.9858C4.86087 9.11121 3.66683 11.9939 3.66683 14.9997C3.66683 18.0055 4.86087 20.8881 6.98629 23.0136C9.1117 25.139 11.9944 26.333 15.0002 26.333ZM13.5835 19.2497H16.4168V22.083H13.5835V19.2497ZM13.5835 7.91634H16.4168V16.4163H13.5835V7.91634Z" fill="#F37A92"/>
</svg>
