<svg width="20" height="30" viewBox="0 0 20 30" fill="none" xmlns="http://www.w3.org/2000/svg">
<path d="M11.4168 14.9997H15.6668L8.5835 24.9163V17.833H4.3335L11.4168 7.91634V14.9997ZM8.5835 6.49967H2.91683V26.333H17.0835V6.49967H11.4168V3.66634H8.5835V6.49967ZM5.75016 3.66634V2.24967C5.75016 1.87395 5.89942 1.51362 6.1651 1.24794C6.43077 0.982263 6.79111 0.833008 7.16683 0.833008H12.8335C13.2092 0.833008 13.5696 0.982263 13.8352 1.24794C14.1009 1.51362 14.2502 1.87395 14.2502 2.24967V3.66634H18.5002C18.8759 3.66634 19.2362 3.8156 19.5019 4.08127C19.7676 4.34695 19.9168 4.70728 19.9168 5.08301V27.7497C19.9168 28.1254 19.7676 28.4857 19.5019 28.7514C19.2362 29.0171 18.8759 29.1663 18.5002 29.1663H1.50016C1.12444 29.1663 0.764105 29.0171 0.498428 28.7514C0.232752 28.4857 0.0834961 28.1254 0.0834961 27.7497V5.08301C0.0834961 4.70728 0.232752 4.34695 0.498428 4.08127C0.764105 3.8156 1.12444 3.66634 1.50016 3.66634H5.75016Z" fill="#F0B14E"/>
</svg>
