<svg width="52" height="79" viewBox="0 0 52 79" fill="none" xmlns="http://www.w3.org/2000/svg">
<g>
 <path d="M39.7702 28.268C39.7702 29.2651 41.3576 30.1033 41.3576 31.9979C41.3576 32.9681 40.6218 34.8573 38.4173 34.8573C36.2128 34.8573 35.4771 32.9708 35.4771 31.9979C35.4771 30.1114 37.0644 29.2651 37.0644 28.268C37.0644 27.4002 35.973 26.6106 35.973 26.6106H26.0015V15.6581C26.0015 15.6581 26.7911 14.5801 27.6589 14.5801C28.656 14.5801 29.4942 16.1675 31.3888 16.1675C32.359 16.1675 34.2482 15.4317 34.2482 13.2272C34.2482 11.0227 32.3617 10.287 31.3888 10.287C29.5023 10.287 28.656 11.8743 27.6589 11.8743C26.7911 11.8743 26.0015 10.7963 26.0015 10.7963V0.0244141C40.603 0.0244141 52.0001 11.7962 52.0001 24.4681C52.0001 25.1975 51.9678 25.9162 51.9031 26.624H40.8536C40.8536 26.624 39.7702 27.4002 39.7702 28.268Z" fill="#5DBD6D"/>
 <path d="M17.7521 37.4333C17.7521 39.6378 19.6386 40.3735 20.6142 40.3735C22.5007 40.3735 23.3469 38.7862 24.3441 38.7862C25.2118 38.7862 25.9988 39.8642 25.9988 39.8642V65.2618H16.0273C16.0273 65.2618 17.1834 56.2767 12.6639 49.6308C10.0363 45.7608 1.11586 38.1043 0.102539 26.6236H11.9309C11.9309 26.6236 13.0089 25.8367 13.0089 24.9689C13.0089 23.9718 11.4215 23.1336 11.4215 21.239C11.4215 20.2688 12.1573 18.377 14.3618 18.377C16.5663 18.377 17.302 20.2635 17.302 21.239C17.302 23.1255 15.7147 23.9718 15.7147 24.9689C15.7147 25.8367 16.7927 26.6236 16.7927 26.6236H25.9826V35.0051C25.9826 35.0051 25.1957 36.0831 24.3279 36.0831C23.3307 36.0831 22.4926 34.4957 20.598 34.4957C19.644 34.493 17.7521 35.2288 17.7521 37.4333Z" fill="#5DBD6D"/>
 <path d="M34.2453 13.2163C34.2453 15.4208 32.3588 16.1565 31.3859 16.1565C29.4995 16.1565 28.6532 14.5692 27.6561 14.5692C26.7883 14.5692 25.9986 15.6472 25.9986 15.6472V26.5996H16.8087C16.8087 26.5996 15.7307 25.8127 15.7307 24.9449C15.7307 23.9478 17.3181 23.1096 17.3181 21.215C17.3181 20.2448 16.5823 18.3529 14.3778 18.3529C12.1733 18.3529 11.4376 20.2394 11.4376 21.215C11.4376 23.1015 13.0249 23.9478 13.0249 24.9449C13.0249 25.8127 11.9469 26.5996 11.9469 26.5996H0.0970201C0.0323401 25.9007 0 25.1821 0 24.4436C0 11.7771 11.3971 0 25.9986 0V10.7503C25.9986 10.7503 26.7883 11.8283 27.6561 11.8283C28.6532 11.8283 29.4914 10.241 31.3859 10.241C32.3561 10.2841 34.2453 11.0118 34.2453 13.2163Z" fill="#5DBD6D"/>
 <path opacity="0.1" d="M34.2453 13.2163C34.2453 15.4208 32.3588 16.1565 31.3859 16.1565C29.4995 16.1565 28.6532 14.5692 27.6561 14.5692C26.7883 14.5692 25.9986 15.6472 25.9986 15.6472V26.5996H16.8087C16.8087 26.5996 15.7307 25.8127 15.7307 24.9449C15.7307 23.9478 17.3181 23.1096 17.3181 21.215C17.3181 20.2448 16.5823 18.3529 14.3778 18.3529C12.1733 18.3529 11.4376 20.2394 11.4376 21.215C11.4376 23.1015 13.0249 23.9478 13.0249 24.9449C13.0249 25.8127 11.9469 26.5996 11.9469 26.5996H0.0970201C0.0323401 25.9007 0 25.1821 0 24.4436C0 11.7771 11.3971 0 25.9986 0V10.7503C25.9986 10.7503 26.7883 11.8283 27.6561 11.8283C28.6532 11.8283 29.4914 10.241 31.3859 10.241C32.3561 10.2841 34.2453 11.0118 34.2453 13.2163Z" fill="black"/>
 <path d="M38.3282 65.2598H13.6689V69.0894H38.3282V65.2598Z" fill="#151519"/>
 <path d="M38.3282 69.7686H13.6689V73.5981H38.3282V69.7686Z" fill="#151519"/>
 <path d="M34.4826 74.2793H17.5176V78.1089H34.4826V74.2793Z" fill="#151519"/>
 <path d="M42.586 50.4828C39.104 57.7377 41.5915 66.4507 41.5915 66.4507L31.7224 67.9302L27.9629 42.8263C27.9629 42.8263 27.0197 41.8642 26.1627 41.9936C25.1763 42.1418 24.5834 43.8369 22.7104 44.1172C21.751 44.26 19.7701 43.8127 19.444 41.6324C19.1179 39.4522 20.8778 38.4442 21.8399 38.3014C23.7102 38.0319 24.7747 39.4656 25.7611 39.3174C26.6208 39.1908 27.238 37.9942 27.238 37.9942L25.9821 29.7097L35.8458 28.2329C35.8458 28.2329 37.0424 28.85 37.169 29.7097C37.3173 30.6961 35.8727 31.7606 36.153 33.631C36.2959 34.5931 37.3038 36.3529 39.484 36.0268C41.6643 35.7007 42.1117 33.7199 41.9688 32.7605C41.6993 30.8875 39.9934 30.2946 39.8452 29.3082C39.7185 28.4512 40.6779 27.5079 40.6779 27.5079L51.5981 25.8721C52.2961 37.3716 44.6099 46.2651 42.586 50.4828Z" fill="#5DBD6D"/>
 <path opacity="0.1" d="M42.5811 50.4613C39.0992 57.7162 41.5866 66.4292 41.5866 66.4292L31.7176 67.9087L27.958 42.8048C27.958 42.8048 27.0148 41.8427 26.1578 41.9721C25.1714 42.1203 24.5785 43.8154 22.7055 44.0957C21.7461 44.2386 19.7652 43.7912 19.4392 41.6109C19.1131 39.4307 20.8729 38.4228 21.835 38.2799C23.7053 38.0104 24.7699 39.4442 25.7562 39.2959C26.6159 39.1693 27.2331 37.9727 27.2331 37.9727L25.9772 29.6883L35.8409 28.2114C35.8409 28.2114 37.0375 28.8286 37.1642 29.6883C37.3124 30.6746 35.8679 31.7392 36.1481 33.6095C36.291 34.5716 37.2989 36.3314 39.4792 36.0053C41.6594 35.6792 42.1068 33.6984 41.9639 32.739C41.6944 30.866 39.9885 30.2731 39.8403 29.2867C39.7136 28.4297 40.673 27.4865 40.673 27.4865L51.5932 25.8506C52.2912 37.3501 44.605 46.2436 42.5811 50.4613Z" fill="black"/>
 <path opacity="0.1" d="M34.2453 13.2163C34.2453 15.4208 32.3588 16.1565 31.3859 16.1565C29.4995 16.1565 28.6532 14.5692 27.6561 14.5692C26.7883 14.5692 25.9986 15.6472 25.9986 15.6472V26.5996H16.8087C16.8087 26.5996 15.7307 25.8127 15.7307 24.9449C15.7307 23.9478 17.3181 23.1096 17.3181 21.215C17.3181 20.2448 16.5823 18.3529 14.3778 18.3529C12.1733 18.3529 11.4376 20.2394 11.4376 21.215C11.4376 23.1015 13.0249 23.9478 13.0249 24.9449C13.0249 25.8127 11.9469 26.5996 11.9469 26.5996H0.0970201C0.0323401 25.9007 0 25.1821 0 24.4436C0 11.7771 11.3971 0 25.9986 0V10.7503C25.9986 10.7503 26.7883 11.8283 27.6561 11.8283C28.6532 11.8283 29.4914 10.241 31.3859 10.241C32.3561 10.2841 34.2453 11.0118 34.2453 13.2163Z" fill="black"/>
</g>
</svg>
