<svg width="28" height="30" viewBox="0 0 28 30" fill="none" xmlns="http://www.w3.org/2000/svg">
<path d="M16.5866 22.1159L10.638 18.8717C9.86142 19.702 8.85303 20.2795 7.7439 20.5291C6.63478 20.7787 5.47621 20.6889 4.41877 20.2715C3.36133 19.854 2.45391 19.1281 1.81444 18.1881C1.17496 17.2482 0.833008 16.1376 0.833008 15.0007C0.833008 13.8638 1.17496 12.7533 1.81444 11.8133C2.45391 10.8733 3.36133 10.1474 4.41877 9.72994C5.47621 9.31247 6.63478 9.2227 7.7439 9.47233C8.85303 9.72195 9.86142 10.2994 10.638 11.1297L16.588 7.8855C16.2503 6.54827 16.4117 5.13375 17.0423 3.90708C17.6728 2.68041 18.7291 1.72581 20.0131 1.22221C21.2971 0.718614 22.7207 0.700599 24.017 1.17154C25.3134 1.64248 26.3934 2.57005 27.0548 3.78037C27.7162 4.99069 27.9134 6.40067 27.6096 7.74602C27.3057 9.09137 26.5216 10.2797 25.4043 11.0883C24.287 11.8969 22.9131 12.2702 21.5401 12.1383C20.1672 12.0064 18.8896 11.3783 17.9466 10.3717L11.9966 13.6159C12.225 14.5245 12.225 15.4755 11.9966 16.3841L17.9452 19.6282C18.8882 18.6217 20.1658 17.9936 21.5387 17.8617C22.9116 17.7298 24.2855 18.1031 25.4029 18.9117C26.5202 19.7203 27.3043 20.9086 27.6082 22.254C27.912 23.5993 27.7148 25.0093 27.0534 26.2196C26.392 27.43 25.3119 28.3575 24.0156 28.8285C22.7193 29.2994 21.2957 29.2814 20.0117 28.7778C18.7277 28.2742 17.6714 27.3196 17.0409 26.0929C16.4103 24.8663 16.2488 23.4517 16.5866 22.1145V22.1159ZM6.49997 17.8333C7.25141 17.8333 7.97208 17.5348 8.50343 17.0035C9.03479 16.4721 9.3333 15.7514 9.3333 15C9.3333 14.2486 9.03479 13.5279 8.50343 12.9965C7.97208 12.4652 7.25141 12.1667 6.49997 12.1667C5.74852 12.1667 5.02785 12.4652 4.4965 12.9965C3.96514 13.5279 3.66663 14.2486 3.66663 15C3.66663 15.7514 3.96514 16.4721 4.4965 17.0035C5.02785 17.5348 5.74852 17.8333 6.49997 17.8333ZM22.0833 9.33333C22.8347 9.33333 23.5554 9.03482 24.0868 8.50347C24.6181 7.97212 24.9166 7.25145 24.9166 6.5C24.9166 5.74855 24.6181 5.02788 24.0868 4.49653C23.5554 3.96518 22.8347 3.66667 22.0833 3.66667C21.3319 3.66667 20.6112 3.96518 20.0798 4.49653C19.5485 5.02788 19.25 5.74855 19.25 6.5C19.25 7.25145 19.5485 7.97212 20.0798 8.50347C20.6112 9.03482 21.3319 9.33333 22.0833 9.33333ZM22.0833 26.3333C22.8347 26.3333 23.5554 26.0348 24.0868 25.5035C24.6181 24.9721 24.9166 24.2514 24.9166 23.5C24.9166 22.7486 24.6181 22.0279 24.0868 21.4965C23.5554 20.9652 22.8347 20.6667 22.0833 20.6667C21.3319 20.6667 20.6112 20.9652 20.0798 21.4965C19.5485 22.0279 19.25 22.7486 19.25 23.5C19.25 24.2514 19.5485 24.9721 20.0798 25.5035C20.6112 26.0348 21.3319 26.3333 22.0833 26.3333Z" fill="#F0B14E"/>
</svg>
