<svg width="30" height="30" viewBox="0 0 30 30" fill="none" xmlns="http://www.w3.org/2000/svg">
<path d="M19.9583 0.833009C20.689 0.832932 21.4108 0.994395 22.0719 1.30584C22.733 1.61729 23.3171 2.07102 23.7824 2.63456C24.2476 3.19811 24.5826 3.85753 24.7632 4.56564C24.9439 5.27375 24.9658 6.01303 24.8273 6.73059L24.8061 6.82409C26.0386 7.23522 27.1161 8.01295 27.8945 9.05321C28.6728 10.0935 29.115 11.3467 29.1616 12.6451C29.2083 13.9435 28.8573 15.2251 28.1557 16.3186C27.454 17.4121 26.4351 18.2652 25.2353 18.7638L23.6968 27.982C23.6418 28.3128 23.4713 28.6134 23.2155 28.8302C22.9597 29.0471 22.6353 29.1662 22.3 29.1663H7.69983C7.3645 29.1662 7.04009 29.0471 6.78432 28.8302C6.52855 28.6134 6.358 28.3128 6.303 27.982L4.84525 19.2412C3.86481 19.1856 2.93389 18.7921 2.21071 18.1278C1.48754 17.4634 1.01674 16.5691 0.878357 15.5969C0.73997 14.6247 0.94253 13.6346 1.45161 12.7948C1.96068 11.955 2.74485 11.3175 3.67083 10.9905L3.66658 10.7497C3.6663 9.31524 4.02905 7.90406 4.72103 6.64757C5.41301 5.39107 6.41172 4.33014 7.62414 3.56357C8.83657 2.797 10.2233 2.34973 11.6551 2.26342C13.087 2.1771 14.5174 2.45455 15.8131 3.06993C16.264 2.38225 16.879 1.81768 17.6027 1.42715C18.3264 1.03662 19.1359 0.832432 19.9583 0.833009ZM10.7499 19.2497H7.71825L8.89975 26.333H10.7499V19.2497ZM16.4166 19.2497H13.5833V26.333H16.4166V19.2497ZM22.2802 19.2497H19.2499V26.333H21.0987L22.2802 19.2497ZM12.1666 5.08301C9.13208 5.08301 6.65433 7.46868 6.507 10.4196L6.49992 10.6987L6.50417 10.9395C6.51418 11.4958 6.36019 12.0427 6.0614 12.5121C5.76261 12.9814 5.33225 13.3524 4.824 13.5788L4.6115 13.6623C4.29694 13.7743 4.03199 13.9938 3.86332 14.2819C3.69465 14.5701 3.63308 14.9086 3.68946 15.2377C3.74583 15.5668 3.91654 15.8655 4.1715 16.0811C4.42647 16.2967 4.74934 16.4154 5.08325 16.4163H22.7916C23.3152 16.4163 23.8323 16.3002 24.3057 16.0764C24.7791 15.8525 25.1969 15.5264 25.5291 15.1217C25.8614 14.7169 26.0997 14.2435 26.227 13.7356C26.3543 13.2277 26.3674 12.6979 26.2653 12.1843C26.1632 11.6707 25.9485 11.1861 25.6367 10.7655C25.3248 10.3448 24.9236 9.99855 24.4618 9.7516C24.0001 9.50465 23.4893 9.36316 22.9663 9.33732C22.4433 9.31149 21.9211 9.40194 21.4373 9.60218L21.1893 9.71693C20.5356 10.0538 19.7766 10.1233 19.0726 9.91072C18.3686 9.69817 17.7748 9.22024 17.4167 8.57793L17.3176 8.38384C16.8648 7.39845 16.1388 6.56366 15.2258 5.97857C14.3128 5.39348 13.251 5.08266 12.1666 5.08301ZM19.9583 3.66634C19.591 3.66627 19.23 3.76136 18.9105 3.94236C18.5909 4.12336 18.3238 4.38408 18.135 4.69909C18.8665 5.4193 19.4617 6.26594 19.8917 7.19809C20.5207 6.87509 21.2092 6.65409 21.9402 6.55634C22.0644 6.23446 22.1083 5.88717 22.0683 5.54449C22.0282 5.20181 21.9053 4.87405 21.7101 4.58951C21.515 4.30498 21.2535 4.07223 20.9483 3.91139C20.6431 3.75055 20.3033 3.66644 19.9583 3.66634Z" fill="#5DBD6D"/>
</svg>
