<svg width="31" height="27" viewBox="0 0 31 27" fill="none" xmlns="http://www.w3.org/2000/svg">
<path d="M22.3748 0.25C26.6787 0.25 30.1665 3.79167 30.1665 8.75C30.1665 18.6667 19.5415 24.3333 15.9998 26.4583C13.1991 24.7782 5.96559 20.8809 3.06425 14.4181L0.416504 14.4167V11.5833H2.13067C1.938 10.6823 1.83317 9.73883 1.83317 8.75C1.83317 3.79167 5.37484 0.25 9.62484 0.25C12.2598 0.25 14.5832 1.66667 15.9998 3.08333C17.4165 1.66667 19.7398 0.25 22.3748 0.25ZM22.3748 3.08333C20.8505 3.08333 19.2015 3.89083 18.003 5.0865L15.9998 7.08967L13.9967 5.0865C12.7982 3.89083 11.1492 3.08333 9.62484 3.08333C6.8765 3.08333 4.6665 5.42933 4.6665 8.75C4.6665 9.72042 4.794 10.6653 5.04475 11.5833H8.11467L11.0415 6.70433L15.2915 13.7877L16.6147 11.5833H23.0832V14.4167H18.2183L15.2915 19.2957L11.0415 12.2123L9.71834 14.4167H6.23617C7.35534 16.3632 9.04825 18.1963 11.2469 19.9459C12.3023 20.7846 13.4286 21.568 14.6767 22.3542C15.1003 22.622 15.5196 22.8784 15.9998 23.1646C16.4801 22.8784 16.8994 22.622 17.323 22.3557C18.5711 21.568 19.6973 20.7846 20.7513 19.9459C24.9744 16.5884 27.3332 12.9192 27.3332 8.75C27.3332 5.40667 25.1558 3.08333 22.3748 3.08333Z" fill="#F0B14E"/>
</svg>
