<svg width="34" height="34" viewBox="0 0 34 34" fill="none" xmlns="http://www.w3.org/2000/svg">
<rect x="5.25" y="5.25" width="23.5" height="23.5" rx="6.75" stroke="#F37A92" stroke-width="2.5"/>
<path d="M10.9982 16.7736C10.4505 16.8443 9.94162 16.4563 9.94964 15.904C9.9592 15.2454 10.0617 14.5896 10.2555 13.9565C10.5472 13.0038 11.039 12.1243 11.6979 11.3768C12.3568 10.6293 13.1676 10.0312 14.0763 9.62225C14.9849 9.21335 15.9704 9.00315 16.9668 9.0057C17.9632 9.00825 18.9476 9.2235 19.8542 9.63705C20.7607 10.0506 21.5685 10.6529 22.2236 11.4037C22.8786 12.1546 23.3659 13.0366 23.6527 13.9908C23.8432 14.6249 23.9424 15.2812 23.9486 15.9399C23.9538 16.4921 23.4429 16.8775 22.8955 16.8041L22.7514 16.7847C22.204 16.7112 21.8307 16.2047 21.7907 15.6539C21.765 15.3004 21.7006 14.9497 21.598 14.6084C21.3991 13.9466 21.0612 13.3349 20.6069 12.8142C20.1527 12.2935 19.5924 11.8758 18.9637 11.589C18.335 11.3022 17.6524 11.1529 16.9613 11.1511C16.2703 11.1493 15.5869 11.2951 14.9567 11.5787C14.3266 11.8623 13.7642 12.2771 13.3072 12.7955C12.8503 13.3139 12.5093 13.9238 12.307 14.5846C12.2026 14.9254 12.1365 15.2757 12.109 15.6291C12.0661 16.1797 11.6902 16.6843 11.1425 16.755L10.9982 16.7736Z" fill="#F37A92"/>
<circle cx="17" cy="15.5" r="1.5" fill="#F37A92"/>
<path fill-rule="evenodd" clip-rule="evenodd" d="M19.4277 13.2647C19.798 13.6745 19.766 14.3068 19.3562 14.6771L18.2433 15.6827L16.9024 14.1988L18.0153 13.1932C18.4251 12.8229 19.0575 12.8549 19.4277 13.2647Z" fill="#F37A92"/>
</svg>
