<svg width="30" height="28" viewBox="0 0 30 28" fill="none" xmlns="http://www.w3.org/2000/svg">
<path d="M16.4166 0.833008V2.64351L23.4999 5.00651L28.6453 3.29234L29.542 5.97834L25.2467 7.41059L29.6327 19.4692C28.0857 21.08 25.9083 22.083 23.4999 22.083C21.0902 22.083 18.9142 21.08 17.3672 19.4692L21.7504 7.41059L16.4166 5.63125V24.9163H22.0833V27.7497H7.9166V24.9163H13.5833V5.63125L8.24527 7.41059L12.6313 19.4692C11.0857 21.08 8.90827 22.083 6.49994 22.083C4.09019 22.083 1.91419 21.08 0.367188 19.4692L4.75035 7.41059L0.457854 5.97975L1.3546 3.29092L6.49994 5.00509L13.5833 2.64351V0.833008H16.4166ZM23.4999 10.8956L20.7261 18.5257C21.5577 18.9947 22.5069 19.2497 23.4999 19.2497C24.4916 19.2497 25.4408 18.9947 26.2738 18.5272L23.4999 10.8942V10.8956ZM6.49994 10.8956L3.7261 18.5257C4.55769 18.9947 5.50685 19.2497 6.49994 19.2497C7.4916 19.2497 8.44077 18.9947 9.27377 18.5272L6.49994 10.8942V10.8956Z" fill="#F37A92"/>
</svg>
