<svg width="34" height="34" viewBox="0 0 34 34" fill="none" xmlns="http://www.w3.org/2000/svg">
<path d="M14.1285 25.5002H19.8717C20.0587 23.7974 20.9271 22.392 22.3367 20.8578C22.4968 20.685 23.5154 19.6295 23.6358 19.4794C24.6364 18.2294 25.2635 16.7221 25.445 15.1313C25.6266 13.5405 25.3551 11.9307 24.6618 10.4874C23.9686 9.04413 22.8817 7.82599 21.5265 6.97329C20.1713 6.12059 18.6028 5.66801 17.0017 5.66767C15.4005 5.66733 13.8318 6.11924 12.4762 6.97136C11.1206 7.82348 10.0333 9.04115 9.33945 10.4842C8.64558 11.9271 8.37339 13.5368 8.55423 15.1277C8.73507 16.7186 9.36159 18.2261 10.3616 19.4765C10.4835 19.6281 11.5049 20.685 11.6621 20.8564C13.0731 22.392 13.9415 23.7974 14.1285 25.5002V25.5002ZM19.8335 28.3335H14.1668V29.7502H19.8335V28.3335ZM8.15163 21.2502C6.8174 19.5832 5.98122 17.5732 5.73942 15.4517C5.49762 13.3303 5.86003 11.1837 6.7849 9.25918C7.70978 7.33469 9.15949 5.71061 10.967 4.57403C12.7746 3.43746 14.8665 2.83462 17.0017 2.83496C19.1369 2.8353 21.2285 3.43881 23.0357 4.57597C24.8429 5.71312 26.2921 7.33766 27.2164 9.26245C28.1406 11.1872 28.5023 13.334 28.2599 15.4554C28.0174 17.5767 27.1806 19.5865 25.8458 21.253C24.9675 22.3467 22.6668 24.0835 22.6668 26.2085V29.7502C22.6668 30.5017 22.3683 31.2223 21.8369 31.7537C21.3056 32.285 20.5849 32.5835 19.8335 32.5835H14.1668C13.4153 32.5835 12.6947 32.285 12.1633 31.7537C11.632 31.2223 11.3335 30.5017 11.3335 29.7502V26.2085C11.3335 24.0835 9.03138 22.3467 8.15163 21.2502ZM18.4168 14.1725H21.9585L15.5835 22.6725V17.0059H12.0418L18.4168 8.50021V14.174V14.1725Z" fill="#5DBD6D"/>
</svg>
