<svg width="200" height="59" viewBox="0 0 200 59" fill="none" xmlns="http://www.w3.org/2000/svg">
<path d="M192.028 59H7.95004C3.82669 59 0.586914 55.755 0.586914 51.625V7.375C0.586914 3.245 3.82669 0 7.95004 0H192.028C196.151 0 199.391 3.245 199.391 7.375V51.625C199.391 55.755 196.151 59 192.028 59Z" fill="black"/>
<path d="M70.3895 15.0451C70.3895 16.2251 70.0949 17.2576 69.3586 17.9951C68.475 18.8801 67.4442 19.3226 66.1188 19.3226C64.7935 19.3226 63.7626 18.8801 62.8791 17.9951C61.9955 17.1101 61.5537 16.0776 61.5537 14.7501C61.5537 13.4226 61.9955 12.3901 62.8791 11.5051C63.7626 10.6201 64.7935 10.1776 66.1188 10.1776C66.7079 10.1776 67.2969 10.3251 67.886 10.6201C68.475 10.9151 68.9168 11.2101 69.2114 11.6526L68.475 12.3901C67.886 11.6526 67.1497 11.3576 66.1188 11.3576C65.2353 11.3576 64.3517 11.6526 63.7626 12.3901C63.0263 12.9801 62.7318 13.8651 62.7318 14.8976C62.7318 15.9301 63.0263 16.8151 63.7626 17.4051C64.499 17.9951 65.2353 18.4376 66.1188 18.4376C67.1497 18.4376 67.886 18.1426 68.6223 17.4051C69.0641 16.9626 69.3586 16.3726 69.3586 15.6351H66.1188V14.4551H70.3895V15.0451ZM77.1635 11.3576H73.1874V14.1601H76.869V15.1926H73.1874V17.9951H77.1635V19.1751H72.0093V10.3251H77.1635V11.3576ZM82.0232 19.1751H80.8451V11.3576H78.3416V10.3251H84.5267V11.3576H82.0232V19.1751ZM88.7973 19.1751V10.3251H89.9754V19.1751H88.7973ZM94.9823 19.1751H93.8042V11.3576H91.3007V10.3251H97.3385V11.3576H94.835V19.1751H94.9823ZM108.972 17.9951C108.089 18.8801 107.058 19.3226 105.732 19.3226C104.407 19.3226 103.376 18.8801 102.493 17.9951C101.609 17.1101 101.167 16.0776 101.167 14.7501C101.167 13.4226 101.609 12.3901 102.493 11.5051C103.376 10.6201 104.407 10.1776 105.732 10.1776C107.058 10.1776 108.089 10.6201 108.972 11.5051C109.856 12.3901 110.298 13.4226 110.298 14.7501C110.298 16.0776 109.856 17.1101 108.972 17.9951ZM103.376 17.2576C103.965 17.8476 104.849 18.2901 105.732 18.2901C106.616 18.2901 107.5 17.9951 108.089 17.2576C108.678 16.6676 109.119 15.7826 109.119 14.7501C109.119 13.7176 108.825 12.8326 108.089 12.2426C107.5 11.6526 106.616 11.2101 105.732 11.2101C104.849 11.2101 103.965 11.5051 103.376 12.2426C102.787 12.8326 102.345 13.7176 102.345 14.7501C102.345 15.7826 102.64 16.6676 103.376 17.2576ZM111.917 19.1751V10.3251H113.243L117.513 17.2576V10.3251H118.692V19.1751H117.513L112.948 11.9476V19.1751H111.917Z" fill="white" stroke="white" stroke-width="0.2" stroke-miterlimit="10"/>
<path d="M100.872 32.155C97.3381 32.155 94.5402 34.81 94.5402 38.4975C94.5402 42.0375 97.3381 44.84 100.872 44.84C104.407 44.84 107.205 42.185 107.205 38.4975C107.205 34.6625 104.407 32.155 100.872 32.155ZM100.872 42.185C98.958 42.185 97.3381 40.5625 97.3381 38.35C97.3381 36.1375 98.958 34.515 100.872 34.515C102.787 34.515 104.407 35.99 104.407 38.35C104.407 40.5625 102.787 42.185 100.872 42.185ZM87.177 32.155C83.6427 32.155 80.8447 34.81 80.8447 38.4975C80.8447 42.0375 83.6427 44.84 87.177 44.84C90.7113 44.84 93.5093 42.185 93.5093 38.4975C93.5093 34.6625 90.7113 32.155 87.177 32.155ZM87.177 42.185C85.2626 42.185 83.6427 40.5625 83.6427 38.35C83.6427 36.1375 85.2626 34.515 87.177 34.515C89.0914 34.515 90.7113 35.99 90.7113 38.35C90.7113 40.5625 89.0914 42.185 87.177 42.185ZM70.8309 34.0725V36.7275H77.1632C77.0159 38.2025 76.4269 39.3825 75.6906 40.12C74.807 41.005 73.3344 42.0375 70.8309 42.0375C66.8548 42.0375 63.9096 38.94 63.9096 34.9575C63.9096 30.975 67.0021 27.8775 70.8309 27.8775C72.8926 27.8775 74.5125 28.7625 75.6906 29.795L77.605 27.8775C75.9851 26.4025 73.9234 25.2225 70.9782 25.2225C65.6767 25.2225 61.1116 29.6475 61.1116 34.9575C61.1116 40.2675 65.6767 44.6925 70.9782 44.6925C73.9234 44.6925 75.9851 43.8075 77.7522 41.89C79.5194 40.12 80.1084 37.6125 80.1084 35.695C80.1084 35.105 80.1084 34.515 79.9612 34.0725H70.8309ZM137.688 36.1375C137.099 34.6625 135.626 32.155 132.387 32.155C129.147 32.155 126.496 34.6625 126.496 38.4975C126.496 42.0375 129.147 44.84 132.681 44.84C135.479 44.84 137.246 43.07 137.835 42.0375L135.774 40.5625C135.037 41.595 134.154 42.3325 132.681 42.3325C131.209 42.3325 130.325 41.7425 129.589 40.415L137.983 36.875L137.688 36.1375ZM129.147 38.2025C129.147 35.8425 131.061 34.515 132.387 34.515C133.417 34.515 134.448 35.105 134.743 35.8425L129.147 38.2025ZM122.226 44.25H125.023V25.8125H122.226V44.25ZM117.808 33.4825C117.071 32.745 115.893 32.0075 114.421 32.0075C111.328 32.0075 108.383 34.81 108.383 38.35C108.383 41.89 111.181 44.545 114.421 44.545C115.893 44.545 117.071 43.8075 117.66 43.07H117.808V43.955C117.808 46.315 116.482 47.6425 114.421 47.6425C112.801 47.6425 111.623 46.4625 111.328 45.43L108.972 46.4625C109.708 48.085 111.475 50.15 114.568 50.15C117.808 50.15 120.458 48.2325 120.458 43.66V32.45H117.808V33.4825ZM114.568 42.185C112.653 42.185 111.034 40.5625 111.034 38.35C111.034 36.1375 112.653 34.515 114.568 34.515C116.482 34.515 117.955 36.1375 117.955 38.35C117.955 40.5625 116.482 42.185 114.568 42.185ZM150.5 25.8125H143.873V44.25H146.671V37.3175H150.5C153.592 37.3175 156.538 35.105 156.538 31.565C156.538 28.025 153.592 25.8125 150.5 25.8125ZM150.647 34.6625H146.671V28.32H150.647C152.709 28.32 153.887 30.09 153.887 31.4175C153.74 33.04 152.562 34.6625 150.647 34.6625ZM167.582 32.0075C165.521 32.0075 163.459 32.8925 162.723 34.81L165.226 35.8425C165.815 34.81 166.699 34.515 167.73 34.515C169.202 34.515 170.528 35.4 170.675 36.875V37.0225C170.233 36.7275 169.055 36.285 167.877 36.285C165.226 36.285 162.575 37.76 162.575 40.415C162.575 42.9225 164.784 44.545 167.141 44.545C169.055 44.545 169.939 43.66 170.675 42.775H170.822V44.25H173.473V37.17C173.178 33.925 170.675 32.0075 167.582 32.0075ZM167.288 42.185C166.404 42.185 165.079 41.7425 165.079 40.5625C165.079 39.0875 166.699 38.645 168.024 38.645C169.202 38.645 169.791 38.94 170.528 39.235C170.233 41.005 168.76 42.185 167.288 42.185ZM182.75 32.45L179.658 40.415H179.511L176.271 32.45H173.326L178.185 43.66L175.387 49.855H178.185L185.696 32.45H182.75ZM158.01 44.25H160.808V25.8125H158.01V44.25Z" fill="white"/>
<path d="M15.9023 11.0625C15.4605 11.505 15.3132 12.2425 15.3132 13.1275V45.725C15.3132 46.61 15.6078 47.3475 16.0495 47.79L16.1968 47.9375L34.4574 29.6475V29.3525L15.9023 11.0625Z" fill="url(#paint0_linear_3018_108)"/>
<path d="M40.3476 35.8426L34.3098 29.7951V29.3526L40.3476 23.3051L40.4948 23.4526L47.7107 27.5826C49.7724 28.7626 49.7724 30.6801 47.7107 31.8601L40.3476 35.8426Z" fill="url(#paint1_linear_3018_108)"/>
<path d="M40.4954 35.695L34.3104 29.5L15.9026 47.9375C16.6389 48.675 17.6697 48.675 18.9951 48.085L40.4954 35.695Z" fill="url(#paint2_linear_3018_108)"/>
<path d="M40.4954 23.305L18.9951 11.0625C17.6697 10.325 16.6389 10.4725 15.9026 11.21L34.3104 29.5L40.4954 23.305Z" fill="url(#paint3_linear_3018_108)"/>
<path opacity="0.2" d="M40.3482 35.5475L18.9951 47.6425C17.817 48.38 16.7862 48.2325 16.0499 47.6425L15.9026 47.79L16.0499 47.9375C16.7862 48.5275 17.817 48.675 18.9951 47.9375L40.3482 35.5475Z" fill="black"/>
<path opacity="0.12" d="M15.9023 47.6425C15.4605 47.2 15.3132 46.4625 15.3132 45.5775V45.725C15.3132 46.61 15.6078 47.3475 16.0495 47.79V47.6425H15.9023ZM47.711 31.4175L40.3479 35.5475L40.4951 35.695L47.711 31.565C48.7418 30.975 49.1836 30.2375 49.1836 29.5C49.1836 30.2375 48.5946 30.8275 47.711 31.4175Z" fill="black"/>
<path opacity="0.25" d="M18.9948 11.21L47.711 27.5825C48.5946 28.1725 49.1836 28.7625 49.1836 29.5C49.1836 28.7625 48.7418 28.025 47.711 27.435L18.9948 11.0625C16.9331 9.88251 15.3132 10.7675 15.3132 13.1275V13.275C15.3132 11.0625 16.9331 10.03 18.9948 11.21Z" fill="white"/>
<defs>
<linearGradient id="paint0_linear_3018_108" x1="32.6902" y1="12.8472" x2="7.93531" y2="37.5608" gradientUnits="userSpaceOnUse">
<stop stop-color="#00A0FF"/>
<stop offset="0.007" stop-color="#00A1FF"/>
<stop offset="0.26" stop-color="#00BEFF"/>
<stop offset="0.512" stop-color="#00D2FF"/>
<stop offset="0.76" stop-color="#00DFFF"/>
<stop offset="1" stop-color="#00E3FF"/>
</linearGradient>
<linearGradient id="paint1_linear_3018_108" x1="50.4115" y1="29.5015" x2="14.7784" y2="29.5015" gradientUnits="userSpaceOnUse">
<stop stop-color="#FFE000"/>
<stop offset="0.409" stop-color="#FFBD00"/>
<stop offset="0.775" stop-color="#FFA500"/>
<stop offset="1" stop-color="#FF9C00"/>
</linearGradient>
<linearGradient id="paint2_linear_3018_108" x1="37.1481" y1="32.8866" x2="3.58014" y2="66.4006" gradientUnits="userSpaceOnUse">
<stop stop-color="#FF3A44"/>
<stop offset="1" stop-color="#C31162"/>
</linearGradient>
<linearGradient id="paint3_linear_3018_108" x1="11.333" y1="0.259607" x2="26.3234" y2="15.2259" gradientUnits="userSpaceOnUse">
<stop stop-color="#32A071"/>
<stop offset="0.069" stop-color="#2DA771"/>
<stop offset="0.476" stop-color="#15CF74"/>
<stop offset="0.801" stop-color="#06E775"/>
<stop offset="1" stop-color="#00F076"/>
</linearGradient>
</defs>
</svg>
