<svg width="199" height="59" viewBox="0 0 199 59" fill="none" xmlns="http://www.w3.org/2000/svg">
<path d="M198.804 53.0858C198.804 53.863 198.656 54.6325 198.368 55.3505C198.081 56.0684 197.659 56.7207 197.127 57.27C196.596 57.8192 195.964 58.2547 195.27 58.5516C194.575 58.8484 193.831 59.0008 193.08 59H5.7323C4.21384 59.0016 2.75692 58.3795 1.68195 57.2704C0.60698 56.1613 0.00197891 54.6561 0 53.0858V5.92193C0.001978 4.35089 0.606741 2.84488 1.6815 1.73457C2.75626 0.624258 4.21316 0.000407792 5.7323 0H193.078C193.83 -2.645e-08 194.575 0.153186 195.269 0.45081C195.964 0.748434 196.595 1.18466 197.127 1.73459C197.658 2.28451 198.08 2.93735 198.368 3.65582C198.655 4.37429 198.803 5.14432 198.803 5.92193L198.804 53.0858Z" fill="white"/>
<path d="M198.804 53.0858C198.804 53.863 198.656 54.6325 198.368 55.3505C198.081 56.0684 197.659 56.7207 197.127 57.27C196.596 57.8192 195.964 58.2547 195.27 58.5516C194.575 58.8484 193.831 59.0008 193.08 59H5.7323C4.21384 59.0016 2.75692 58.3795 1.68195 57.2704C0.60698 56.1613 0.00197891 54.6561 0 53.0858V5.92193C0.001978 4.35089 0.606741 2.84488 1.6815 1.73457C2.75626 0.624258 4.21316 0.000407792 5.7323 0H193.078C193.83 -2.645e-08 194.575 0.153186 195.269 0.45081C195.964 0.748434 196.595 1.18466 197.127 1.73459C197.658 2.28451 198.08 2.93735 198.368 3.65582C198.655 4.37429 198.803 5.14432 198.803 5.92193L198.804 53.0858Z" fill="black"/>
<path d="M43.6576 29.1757C43.6143 24.1988 47.598 21.7775 47.7802 21.6648C45.524 18.263 42.027 17.7982 40.7981 17.7611C37.861 17.4415 35.0121 19.5786 33.5159 19.5786C31.9899 19.5786 29.6859 17.792 27.2028 17.8445C24.0074 17.8955 21.018 19.8087 19.3785 22.7797C15.995 28.8375 18.5185 37.7397 21.7601 42.6363C23.3817 45.036 25.2766 47.712 27.7567 47.6178C30.1831 47.5159 31.0895 46.0196 34.0176 46.0196C36.9189 46.0196 37.77 47.6178 40.2994 47.5576C42.9035 47.5159 44.543 45.1487 46.1079 42.729C47.9818 39.9819 48.7344 37.2734 48.7642 37.1344C48.7045 37.1128 43.7083 35.1393 43.6576 29.1757V29.1757ZM38.8794 14.54C40.1844 12.8522 41.0773 10.556 40.8295 8.22583C38.9406 8.3123 36.5784 9.57699 35.2181 11.2277C34.0146 12.6823 32.9395 15.0665 33.2173 17.3087C35.3391 17.4724 37.5176 16.2015 38.8794 14.54V14.54Z" fill="white"/>
<path d="M78.8019 47.2735H75.4109L73.5534 41.2373H67.0969L65.3275 47.2735H62.0261L68.4244 26.7235H72.3753L78.8019 47.2735V47.2735ZM72.9935 38.7048L71.3137 33.3388C71.136 32.7906 70.8015 31.4997 70.3118 29.4675H70.252C70.0549 30.3415 69.7399 31.6325 69.3083 33.3388L67.6569 38.7048H72.9935ZM95.2239 39.6823C95.2239 42.2024 94.5624 44.1944 93.238 45.6567C92.0524 46.9584 90.5786 47.6085 88.8212 47.6085C86.9233 47.6085 85.5586 46.909 84.7299 45.5069V53.2819H81.5464V37.3258C81.5464 35.7431 81.5061 34.1201 81.4284 32.4555H84.2281L84.4058 34.8042H84.4656C85.5272 33.0346 87.1383 32.1498 89.3005 32.1498C90.9907 32.1498 92.4018 32.84 93.5306 34.222C94.658 35.6072 95.2239 37.4262 95.2239 39.6823ZM91.9807 39.8027C91.9807 38.3604 91.6671 37.1714 91.037 36.2341C90.3487 35.2597 89.4244 34.7718 88.2657 34.7718C87.4803 34.7718 86.7665 35.0436 86.129 35.5794C85.4899 36.1198 85.0718 36.8255 84.8762 37.6995C84.7889 38.0264 84.7392 38.3628 84.7284 38.7017V41.1739C84.7284 42.2502 85.0479 43.1598 85.687 43.9041C86.3261 44.6453 87.1563 45.0174 88.1776 45.0174C89.3766 45.0174 90.3099 44.5372 90.9773 43.5844C91.6462 42.6286 91.9807 41.3685 91.9807 39.8027V39.8027ZM111.704 39.6823C111.704 42.2024 111.043 44.1944 109.718 45.6567C108.531 46.9584 107.059 47.6085 105.3 47.6085C103.402 47.6085 102.037 46.909 101.209 45.5069V53.2819H98.0251V37.3258C98.0251 35.7431 97.9848 34.1201 97.9071 32.4555H100.707L100.885 34.8042H100.944C102.004 33.0346 103.616 32.1498 105.779 32.1498C107.468 32.1498 108.879 32.84 110.011 34.222C111.137 35.6072 111.704 37.4262 111.704 39.6823V39.6823ZM108.459 39.8027C108.459 38.3604 108.144 37.1714 107.514 36.2341C106.826 35.2597 105.905 34.7718 104.746 34.7718C103.96 34.7718 103.247 35.0436 102.606 35.5794C101.967 36.1198 101.55 36.8255 101.355 37.6995C101.258 38.1072 101.206 38.4392 101.206 38.7017V41.1739C101.206 42.2502 101.527 43.1598 102.163 43.9041C102.802 44.6437 103.632 45.0174 104.656 45.0174C105.857 45.0174 106.79 44.5372 107.456 43.5844C108.125 42.6286 108.459 41.3685 108.459 39.8027V39.8027ZM130.13 41.509C130.13 43.2586 129.539 44.6808 128.363 45.7787C127.07 46.977 125.265 47.5777 122.951 47.5777C120.812 47.5777 119.098 47.1515 117.805 46.2975L118.541 43.5535C119.937 44.409 121.471 44.8352 123.14 44.8352C124.341 44.8352 125.274 44.5542 125.94 43.9967C126.607 43.4377 126.945 42.6903 126.945 41.7576C126.945 40.9222 126.666 40.2227 126.118 39.6529C125.567 39.0847 124.656 38.555 123.376 38.0686C119.897 36.7267 118.156 34.7641 118.156 32.1822C118.156 30.4959 118.771 29.1154 119.999 28.0361C121.226 26.9582 122.854 26.4193 124.878 26.4193C126.687 26.4193 128.193 26.7451 129.389 27.3952L128.59 30.079C127.465 29.449 126.194 29.134 124.772 29.134C123.649 29.134 122.769 29.4197 122.138 29.9879C121.608 30.4959 121.34 31.1152 121.34 31.8502C121.34 32.6609 121.646 33.3341 122.255 33.8623C122.783 34.3487 123.748 34.8783 125.143 35.4466C126.854 36.16 128.111 36.9908 128.916 37.9451C129.727 38.8994 130.13 40.0899 130.13 41.509ZM140.682 34.9262H137.173V42.1205C137.173 43.9504 137.791 44.863 139.031 44.863C139.6 44.863 140.071 44.8136 140.445 44.7101L140.533 47.2101C139.906 47.4526 139.08 47.5746 138.057 47.5746C136.8 47.5746 135.817 47.1777 135.108 46.384C134.402 45.5903 134.046 44.2608 134.046 42.3892V34.92H131.956V32.4493H134.046V29.7362L137.173 28.7603V32.4493H140.682V34.9262V34.9262ZM156.483 39.7425C156.483 42.0202 155.853 43.8902 154.596 45.3525C153.28 46.8581 151.53 47.6085 149.349 47.6085C147.243 47.6085 145.569 46.8874 144.321 45.4467C143.073 44.0029 142.449 42.1838 142.449 39.9896C142.449 37.6934 143.094 35.8126 144.379 34.3502C145.668 32.8863 147.403 32.1544 149.584 32.1544C151.687 32.1544 153.376 32.8771 154.654 34.3193C155.875 35.7184 156.483 37.525 156.483 39.7425ZM153.183 39.8182C153.183 38.4608 152.899 37.2965 152.33 36.3221C151.663 35.1455 150.707 34.5571 149.469 34.5571C148.194 34.5571 147.216 35.1455 146.55 36.3221C145.98 37.2965 145.696 38.4809 145.696 39.8799C145.696 41.2388 145.98 42.4062 146.55 43.3775C147.239 44.5542 148.199 45.1425 149.443 45.1425C150.66 45.1425 151.614 44.5418 152.304 43.3481C152.889 42.3506 153.183 41.1786 153.183 39.8182ZM166.835 35.3508C166.504 35.289 166.168 35.2585 165.832 35.2597C164.712 35.2597 163.846 35.6952 163.237 36.5723C162.708 37.3444 162.442 38.3203 162.442 39.4985V47.2735H159.259V37.122C159.262 35.5665 159.231 34.0111 159.166 32.4571H161.939L162.055 35.2922H162.144C162.481 34.3178 163.01 33.5318 163.735 32.9435C164.399 32.4294 165.207 32.151 166.036 32.1498C166.33 32.1498 166.596 32.1714 166.832 32.21L166.835 35.3508V35.3508ZM181.073 39.1634C181.081 39.6639 181.042 40.164 180.956 40.6566H171.406C171.442 42.1205 171.904 43.2416 172.791 44.0137C173.596 44.7024 174.637 45.0483 175.915 45.0483C177.329 45.0483 178.619 44.8167 179.779 44.3488L180.278 46.6326C178.922 47.2441 177.322 47.5483 175.475 47.5483C173.253 47.5483 171.509 46.872 170.24 45.5224C168.973 44.1712 168.339 42.3552 168.339 40.0807C168.339 37.8478 168.929 35.987 170.11 34.5031C171.346 32.9188 173.017 32.1266 175.119 32.1266C177.184 32.1266 178.748 32.9188 179.809 34.5031C180.65 35.7585 181.073 37.315 181.073 39.1634V39.1634ZM178.037 38.3095C178.059 37.332 177.85 36.4904 177.419 35.7786C176.868 34.8613 176.02 34.4043 174.883 34.4043C173.843 34.4043 172.994 34.8505 172.349 35.7462C171.819 36.458 171.504 37.3135 171.407 38.3064L178.037 38.3095Z" fill="white"/>
<path d="M66.1792 19.4581C65.2937 19.4581 64.5277 19.4134 63.8901 19.3377V9.40245C64.7819 9.25999 65.683 9.18977 66.5853 9.19244C70.2361 9.19244 71.9174 11.0501 71.9174 14.0782C71.9174 17.5712 69.9315 19.4581 66.1792 19.4581ZM66.7137 10.4664C66.221 10.4664 65.8014 10.4973 65.4535 10.5714V18.124C65.6416 18.1549 66.003 18.1688 66.5107 18.1688C68.9027 18.1688 70.2645 16.7605 70.2645 14.123C70.2645 11.7712 69.0326 10.4664 66.7137 10.4664V10.4664ZM77.157 19.5338C75.0994 19.5338 73.766 17.9448 73.766 15.7876C73.766 13.5393 75.1278 11.9364 77.2735 11.9364C79.3012 11.9364 80.6645 13.4497 80.6645 15.6687C80.6645 17.9448 79.2594 19.5338 77.157 19.5338ZM77.2167 13.1193C76.0864 13.1193 75.3622 14.2126 75.3622 15.7413C75.3622 17.2407 76.1013 18.334 77.2018 18.334C78.3023 18.334 79.0414 17.165 79.0414 15.7104C79.0414 14.228 78.3172 13.1193 77.2167 13.1193ZM92.3978 12.0862L90.1954 19.3686H88.7605L87.8481 16.2061C87.6213 15.4325 87.4324 14.6476 87.2822 13.8543H87.2524C87.1374 14.648 86.9194 15.4433 86.6879 16.2061L85.7174 19.3686H84.2675L82.195 12.0862H83.8031L84.6005 15.5483C84.7886 16.3729 84.9469 17.1511 85.0783 17.8862H85.1082C85.2231 17.2731 85.4113 16.5072 85.6875 15.5637L86.6879 12.0878H87.9631L88.9202 15.4896C89.1517 16.3142 89.3398 17.1233 89.4861 17.8877H89.528C89.6295 17.1388 89.7893 16.3435 90.0058 15.4896L90.8614 12.0878L92.3978 12.0862V12.0862ZM100.506 19.3686H98.9409V15.1869C98.9409 13.8991 98.4631 13.2536 97.5209 13.2536C96.5937 13.2536 95.9561 14.0782 95.9561 15.0372V19.3686H94.3912V14.1678C94.3912 13.5239 94.3763 12.8336 94.333 12.0847H95.7097L95.7829 13.2089H95.8262C96.2472 12.4306 97.1013 11.9364 98.0585 11.9364C99.5367 11.9364 100.507 13.1054 100.507 15.0078L100.506 19.3686V19.3686ZM104.821 19.3686H103.255V8.74463H104.821V19.3686ZM110.526 19.5338C108.47 19.5338 107.135 17.9448 107.135 15.7876C107.135 13.5393 108.497 11.9364 110.641 11.9364C112.671 11.9364 114.032 13.4497 114.032 15.6687C114.034 17.9448 112.627 19.5338 110.526 19.5338ZM110.585 13.1193C109.454 13.1193 108.73 14.2126 108.73 15.7413C108.73 17.2407 109.471 18.334 110.568 18.334C111.67 18.334 112.408 17.165 112.408 15.7104C112.409 14.228 111.687 13.1193 110.585 13.1193V13.1193ZM120.202 19.3686L120.089 18.5301H120.047C119.569 19.2049 118.872 19.5338 117.988 19.5338C116.726 19.5338 115.83 18.6197 115.83 17.3905C115.83 15.5931 117.337 14.6635 119.945 14.6635V14.5291C119.945 13.5702 119.454 13.0899 118.484 13.0899C117.789 13.0899 117.18 13.2706 116.644 13.6304L116.326 12.5665C116.977 12.1465 117.789 11.9364 118.743 11.9364C120.583 11.9364 121.512 12.9402 121.512 14.9491V17.6314C121.512 18.3664 121.543 18.9362 121.613 19.3701L120.202 19.3686V19.3686ZM119.987 15.7413C118.249 15.7413 117.377 16.1768 117.377 17.2098C117.377 17.9742 117.827 18.3479 118.451 18.3479C119.247 18.3479 119.987 17.7194 119.987 16.8655V15.7413V15.7413ZM129.111 19.3686L129.037 18.1996H128.994C128.545 19.0829 127.789 19.5338 126.733 19.5338C125.036 19.5338 123.778 17.9896 123.778 15.817C123.778 13.5393 125.082 11.9349 126.862 11.9349C127.804 11.9349 128.471 12.2638 128.848 12.9247H128.879V8.74463H130.445V17.4059C130.445 18.1101 130.462 18.7694 130.504 19.3686H129.111ZM128.879 15.0835C128.879 14.0643 128.227 13.195 127.231 13.195C126.07 13.195 125.361 14.2589 125.361 15.7567C125.361 17.2253 126.097 18.2305 127.199 18.2305C128.183 18.2305 128.879 17.3457 128.879 16.2972V15.0835ZM140.377 19.5338C138.32 19.5338 136.987 17.9448 136.987 15.7876C136.987 13.5393 138.349 11.9364 140.493 11.9364C142.522 11.9364 143.884 13.4497 143.884 15.6687C143.886 17.9448 142.48 19.5338 140.377 19.5338ZM140.435 13.1193C139.306 13.1193 138.582 14.2126 138.582 15.7413C138.582 17.2407 139.321 18.334 140.42 18.334C141.522 18.334 142.259 17.165 142.259 15.7104C142.262 14.228 141.538 13.1193 140.435 13.1193ZM152.3 19.3686H150.733V15.1869C150.733 13.8991 150.255 13.2536 149.313 13.2536C148.386 13.2536 147.75 14.0782 147.75 15.0372V19.3686H146.184V14.1678C146.184 13.5239 146.169 12.8336 146.125 12.0847H147.502L147.575 13.2089H147.618C148.038 12.4306 148.894 11.9349 149.849 11.9349C151.327 11.9349 152.3 13.1038 152.3 15.0063V19.3686ZM162.828 13.3H161.106V16.8361C161.106 17.7364 161.408 18.1857 162.017 18.1857C162.293 18.1857 162.525 18.1549 162.711 18.1101L162.755 19.3392C162.452 19.4597 162.045 19.5199 161.541 19.5199C160.307 19.5199 159.57 18.8158 159.57 16.972V13.3H158.543V12.0862H159.57V10.7521L161.106 10.2718V12.0847H162.828V13.3V13.3ZM171.112 19.3686H169.549V15.2178C169.549 13.9145 169.072 13.2552 168.129 13.2552C167.318 13.2552 166.562 13.825 166.562 14.9785V19.3686H164.999V8.74463H166.562V13.1193H166.594C167.086 12.3256 167.8 11.9349 168.711 11.9349C170.201 11.9349 171.112 13.1332 171.112 15.0372V19.3686V19.3686ZM179.599 16.1165H174.903C174.933 17.4955 175.816 18.2738 177.122 18.2738C177.816 18.2738 178.455 18.1533 179.02 17.9294L179.263 19.0536C178.597 19.3531 177.813 19.5029 176.901 19.5029C174.699 19.5029 173.395 18.0638 173.395 15.8324C173.395 13.5995 174.73 11.921 176.725 11.921C178.524 11.921 179.653 13.3 179.653 15.3831C179.663 15.6289 179.645 15.8751 179.599 16.1165V16.1165ZM178.164 14.963C178.164 13.8389 177.616 13.0452 176.616 13.0452C175.717 13.0452 175.006 13.8543 174.905 14.963H178.164V14.963Z" fill="white"/>
</svg>
