<svg width="80" height="80" viewBox="0 0 80 80" fill="none" xmlns="http://www.w3.org/2000/svg">
<path d="M80 0H24C10.7452 0 0 10.7452 0 24V80L80 0Z" fill="#8CC63F"/>
<path d="M15.1644 47.959C14.4432 48.6802 13.6547 49.1575 12.7991 49.3908C11.9506 49.6171 11.0915 49.5853 10.2217 49.2954C9.35198 49.0055 8.5282 48.4716 7.75039 47.6938C6.97257 46.916 6.44224 46.0957 6.1594 45.2331C5.86948 44.3633 5.83766 43.5042 6.06394 42.6557C6.29728 41.8001 6.77458 41.0116 7.49583 40.2904C7.96252 39.8237 8.47164 39.456 9.02318 39.1873C9.56765 38.9115 10.1298 38.7454 10.7096 38.6888C10.8723 38.6676 11.0101 38.6782 11.1233 38.7206C11.2364 38.763 11.3496 38.8408 11.4627 38.954C11.6183 39.1095 11.7067 39.2828 11.7279 39.4737C11.7491 39.6646 11.6996 39.8202 11.5794 39.9404C11.4379 40.0818 11.2435 40.1772 10.996 40.2267C10.4657 40.3045 10.0273 40.4318 9.68079 40.6086C9.32724 40.7783 8.99136 41.0222 8.67316 41.3404C7.93777 42.0758 7.60897 42.8643 7.68675 43.7057C7.7716 44.5401 8.2595 45.4028 9.15046 46.2937C10.0485 47.1917 10.9147 47.6832 11.7491 47.768C12.5905 47.8458 13.379 47.517 14.1143 46.7816C14.4184 46.4776 14.6517 46.1523 14.8144 45.8058C14.9841 45.4523 15.122 45.0033 15.228 44.4588C15.2563 44.3456 15.2917 44.2396 15.3341 44.1406C15.3765 44.0416 15.4366 43.9532 15.5144 43.8754C15.6346 43.7552 15.7902 43.7057 15.9811 43.7269C16.172 43.7481 16.3453 43.8365 16.5008 43.9921C16.6069 44.0982 16.6847 44.2113 16.7342 44.3315C16.7766 44.4446 16.7872 44.5825 16.766 44.7452C16.7094 45.325 16.5468 45.8907 16.2781 46.4422C16.0023 46.9867 15.6311 47.4923 15.1644 47.959ZM19.2027 38.0446C19.5421 37.889 19.8638 37.8148 20.1679 37.8219C20.479 37.8219 20.921 37.9032 21.4937 38.0658L22.7665 38.4052C22.9433 38.4547 23.0847 38.5325 23.1908 38.6386C23.3605 38.8083 23.4383 39.0204 23.4241 39.275C23.41 39.5154 23.3145 39.724 23.1377 39.9008C22.8973 40.1412 22.6003 40.2119 22.2468 40.1129L20.3906 39.5932C19.9947 39.4942 19.6765 39.4659 19.436 39.5083C19.1956 39.5507 18.9411 39.7063 18.6724 39.975L18.2587 40.3887L19.8285 41.9584C20.0265 42.1564 20.1219 42.3721 20.1149 42.6054C20.1078 42.8388 20.0017 43.058 19.7967 43.2631C19.5916 43.4681 19.3724 43.5742 19.1391 43.5812C18.9128 43.5812 18.7007 43.4823 18.5027 43.2843L14.4085 39.1901C14.2176 38.9992 14.1257 38.7871 14.1327 38.5537C14.1398 38.3204 14.2423 38.1047 14.4403 37.9067C14.6454 37.7017 14.8646 37.5956 15.0979 37.5885C15.3313 37.5814 15.5434 37.6734 15.7343 37.8643L17.2723 39.4022L17.7496 38.925L17.3784 35.5202C17.3359 35.195 17.4102 34.9369 17.6011 34.7459C17.7496 34.5975 17.9299 34.5232 18.142 34.5232C18.3542 34.5232 18.5345 34.5975 18.683 34.7459C18.8315 34.8944 18.9199 35.096 18.9481 35.3505L19.2027 38.0446ZM23.6776 29.6877C23.621 29.3483 23.614 29.0866 23.6564 28.9028C23.7059 28.7119 23.8332 28.5139 24.0382 28.3088C24.2433 28.1038 24.4625 27.9977 24.6958 27.9906C24.9363 27.9765 25.1519 28.0649 25.3428 28.2558L29.4264 32.3393C29.6173 32.5302 29.7128 32.7459 29.7128 32.9863C29.7198 33.2197 29.6314 33.4283 29.4476 33.6121C29.2567 33.803 29.041 33.8985 28.8006 33.8985C28.5673 33.8914 28.3551 33.7924 28.1642 33.6015L25.1731 30.6105L26.0747 36.0092C26.1313 36.3345 26.1313 36.5961 26.0747 36.7941C26.0181 36.9779 25.8979 37.1618 25.7141 37.3456C25.509 37.5507 25.2898 37.6568 25.0565 37.6638C24.8231 37.6709 24.6075 37.5755 24.4095 37.3775L20.3259 33.2939C20.135 33.103 20.0395 32.8944 20.0395 32.6681C20.0395 32.4277 20.135 32.212 20.3259 32.0211C20.5098 31.8373 20.7184 31.7489 20.9517 31.756C21.1851 31.7489 21.3972 31.8408 21.5881 32.0317L24.558 35.0016L23.6776 29.6877ZM32.9972 32.7566C32.8133 32.9405 32.6083 33.0324 32.382 33.0324C32.1699 33.0324 31.9648 32.9334 31.7668 32.7354L30.6531 31.6217C30.441 31.4237 30.3314 31.2081 30.3243 30.9747C30.3172 30.7414 30.4056 30.5328 30.5895 30.3489L30.7061 30.2323C30.5435 29.6595 30.2713 29.1044 29.8894 28.567C29.5147 28.0226 29.0126 27.4357 28.3833 26.8063L27.7363 26.1593C27.5242 25.9613 27.4146 25.7457 27.4075 25.5123C27.4004 25.279 27.4959 25.0633 27.6939 24.8653L30.3137 22.2455C30.5117 22.0334 30.7274 21.9238 30.9607 21.9167C31.194 21.9096 31.4097 22.0051 31.6077 22.2031L35.1715 25.7669L35.3412 25.5972C35.5392 25.385 35.7549 25.2754 35.9882 25.2684C36.2216 25.2613 36.4372 25.3568 36.6352 25.5547L37.7913 26.7109C37.9893 26.9089 38.0848 27.1175 38.0777 27.3367C38.0848 27.5559 37.9964 27.7574 37.8126 27.9412C37.6216 28.1322 37.4166 28.2241 37.1974 28.217C36.9852 28.217 36.7802 28.118 36.5822 27.92L35.7973 27.1351L32.2017 30.7308L32.9866 31.5157C33.1845 31.7136 33.28 31.9222 33.2729 32.1414C33.28 32.3607 33.1881 32.5657 32.9972 32.7566ZM30.6637 23.8895L29.2106 25.3426L29.5288 25.6608C30.2006 26.3326 30.7309 26.969 31.1198 27.57C31.5158 28.164 31.7491 28.6802 31.8198 29.1186L33.8563 27.0821L30.6637 23.8895ZM38.3178 18.9295C38.6572 18.774 38.9789 18.6997 39.283 18.7068C39.5941 18.7068 40.0361 18.7881 40.6088 18.9507L41.8816 19.2901C42.0584 19.3396 42.1998 19.4174 42.3059 19.5235C42.4756 19.6932 42.5534 19.9053 42.5392 20.1599C42.5251 20.4003 42.4296 20.6089 42.2528 20.7857C42.0124 21.0261 41.7154 21.0968 41.3619 20.9978L39.5057 20.4781C39.1097 20.3791 38.7915 20.3508 38.5511 20.3932C38.3107 20.4357 38.0562 20.5912 37.7875 20.8599L37.3738 21.2736L38.9436 22.8434C39.1416 23.0413 39.237 23.257 39.23 23.4904C39.2229 23.7237 39.1168 23.9429 38.9118 24.148C38.7067 24.353 38.4875 24.4591 38.2541 24.4662C38.0279 24.4662 37.8157 24.3672 37.6178 24.1692L33.5236 20.075C33.3327 19.8841 33.2408 19.672 33.2478 19.4386C33.2549 19.2053 33.3574 18.9896 33.5554 18.7916C33.7605 18.5866 33.9797 18.4805 34.213 18.4734C34.4464 18.4664 34.6585 18.5583 34.8494 18.7492L36.3874 20.2872L36.8647 19.8099L36.4935 16.4051C36.451 16.0799 36.5253 15.8218 36.7162 15.6309C36.8647 15.4824 37.045 15.4081 37.2571 15.4081C37.4693 15.4081 37.6496 15.4824 37.7981 15.6309C37.9466 15.7794 38.0349 15.9809 38.0632 16.2354L38.3178 18.9295ZM41.0638 11.2408C41.7851 10.5196 42.4992 10.166 43.2063 10.1802C43.9135 10.1802 44.6312 10.5443 45.3595 11.2726L47.9475 13.8606C48.1384 14.0516 48.2339 14.2602 48.2339 14.4864C48.2268 14.7056 48.1243 14.9142 47.9263 15.1122C47.7424 15.2961 47.5338 15.3915 47.3005 15.3986C47.0742 15.3986 46.8692 15.3067 46.6853 15.1228L46.452 14.8895C46.6075 15.2855 46.6323 15.692 46.5262 16.1092C46.4272 16.5194 46.208 16.8941 45.8686 17.2335C45.5221 17.58 45.1368 17.824 44.7125 17.9654C44.2882 18.1068 43.871 18.1351 43.4609 18.0502C43.0508 17.9654 42.6937 17.7709 42.3896 17.4669C42.0078 17.085 41.8027 16.6891 41.7745 16.2789C41.7532 15.8618 41.9123 15.3845 42.2518 14.8471C42.5912 14.3097 43.1462 13.6556 43.917 12.8848L44.1822 12.6197L43.9382 12.3757C43.5917 12.0292 43.2665 11.8525 42.9624 11.8454C42.6513 11.8312 42.3295 11.9903 41.9972 12.3227C41.7921 12.5277 41.6154 12.7682 41.4669 13.0439C41.3113 13.3126 41.1451 13.6485 40.9684 14.0516C40.8764 14.3273 40.788 14.5076 40.7032 14.5925C40.5759 14.7198 40.4239 14.7799 40.2471 14.7728C40.0774 14.7587 39.9183 14.6773 39.7698 14.5289C39.6496 14.4086 39.5754 14.2778 39.5471 14.1364C39.5188 13.9808 39.5365 13.7935 39.6001 13.5743C39.7132 13.1924 39.9006 12.7929 40.1623 12.3757C40.431 11.9515 40.7315 11.5732 41.0638 11.2408ZM45.1792 16.0138C45.5327 15.6602 45.7024 15.2572 45.6883 14.8046C45.6742 14.3379 45.4797 13.9172 45.1049 13.5424L44.8822 13.3197L44.6913 13.5106C44.2175 13.9844 43.871 14.3733 43.6518 14.6773C43.4326 14.9814 43.3195 15.243 43.3124 15.4622C43.3053 15.6814 43.3937 15.883 43.5776 16.0668C43.8039 16.2931 44.069 16.4027 44.3731 16.3956C44.6771 16.3744 44.9458 16.2471 45.1792 16.0138ZM48.5313 10.0737C48.4252 10.1797 48.2979 10.2363 48.1494 10.2434C48.008 10.2434 47.8631 10.1833 47.7146 10.0631L43.1962 6.32954L43.0795 6.23408C42.8603 6.01487 42.7613 5.76739 42.7825 5.49162C42.8037 5.2017 42.931 4.94007 43.1643 4.70673C43.4118 4.45924 43.6911 4.3355 44.0023 4.3355C44.3063 4.32843 44.5715 4.46631 44.7978 4.74915L48.5207 9.25696C48.6409 9.40545 48.6974 9.55394 48.6904 9.70244C48.6904 9.84386 48.6373 9.9676 48.5313 10.0737ZM50.7587 12.3011C50.5324 12.5273 50.2708 12.6405 49.9738 12.6405C49.6697 12.6334 49.4046 12.5167 49.1783 12.2904C48.952 12.0642 48.8389 11.8025 48.8389 11.5056C48.8318 11.2015 48.9414 10.9363 49.1677 10.7101C49.394 10.4838 49.6591 10.3742 49.9632 10.3813C50.2602 10.3813 50.5218 10.4944 50.7481 10.7207C50.9743 10.9469 51.091 11.2121 51.0981 11.5162C51.0981 11.8132 50.9849 12.0748 50.7587 12.3011Z" fill="white"/>
</svg>
